<svg width="119" height="29" viewBox="0 0 119 29" fill="none" xmlns="http://www.w3.org/2000/svg">
  <path
    d="M118.474 26.4121C118.476 26.6471 118.429 26.8799 118.337 27.0961C118.205 27.4135 117.982 27.6844 117.695 27.8742C117.408 28.0641 117.072 28.1643 116.728 28.1621C116.488 28.1638 116.251 28.1187 116.028 28.0291C115.824 27.9458 115.639 27.8231 115.483 27.6681C115.33 27.5084 115.21 27.3206 115.128 27.1151C115.041 26.8923 114.997 26.6545 115 26.4151C114.998 26.1796 115.045 25.9462 115.136 25.7291C115.221 25.5225 115.347 25.3349 115.505 25.1771C115.835 24.851 116.28 24.669 116.744 24.6711C116.984 24.6684 117.222 24.7136 117.444 24.8041C117.649 24.886 117.834 25.0091 117.989 25.1656C118.144 25.3222 118.265 25.5089 118.344 25.7141C118.429 25.9376 118.472 26.175 118.47 26.4141M118.127 26.4411C118.131 26.2367 118.097 26.0332 118.027 25.8411C117.963 25.6679 117.864 25.5096 117.736 25.3761C117.611 25.2463 117.461 25.1441 117.294 25.0761C117.12 25.0069 116.933 24.9729 116.745 24.9761C116.547 24.9751 116.351 25.0142 116.169 25.0911C116.003 25.1631 115.853 25.2676 115.728 25.3985C115.602 25.5294 115.505 25.6839 115.44 25.8531C115.373 26.0279 115.339 26.2138 115.34 26.4011C115.338 26.606 115.374 26.8094 115.446 27.0011C115.511 27.1737 115.61 27.3313 115.737 27.4641C115.861 27.5936 116.01 27.6958 116.175 27.7641C116.351 27.8336 116.539 27.8676 116.728 27.8641C116.927 27.8679 117.125 27.8287 117.307 27.7491C117.475 27.678 117.625 27.5727 117.75 27.4401C117.875 27.3107 117.972 27.1563 118.033 26.9871C118.101 26.8134 118.135 26.6285 118.133 26.4421M117.546 27.3001C117.547 27.3105 117.547 27.3208 117.546 27.3311C117.543 27.3368 117.539 27.3418 117.534 27.3456C117.529 27.3495 117.523 27.352 117.517 27.3531C117.496 27.3582 117.474 27.3619 117.452 27.3641C117.411 27.3687 117.37 27.3707 117.328 27.3701C117.292 27.3705 117.257 27.3685 117.221 27.3641C117.197 27.3614 117.173 27.3563 117.149 27.3491C117.133 27.3408 117.118 27.3307 117.104 27.3191C117.094 27.3036 117.086 27.2868 117.081 27.2691L116.981 26.9421C116.956 26.845 116.905 26.7563 116.834 26.6851C116.758 26.6307 116.665 26.6049 116.571 26.6121H116.443V27.2901C116.445 27.3026 116.442 27.3152 116.436 27.3261C116.43 27.337 116.42 27.3458 116.409 27.3511C116.359 27.3676 116.307 27.3741 116.254 27.3701C116.198 27.3733 116.143 27.3669 116.089 27.3511C116.078 27.346 116.068 27.3373 116.061 27.3264C116.055 27.3155 116.052 27.3028 116.053 27.2901V25.5941C116.05 25.5434 116.066 25.4932 116.097 25.4531C116.114 25.4347 116.135 25.4205 116.159 25.4117C116.182 25.4028 116.207 25.3996 116.232 25.4021H116.723C116.835 25.3997 116.947 25.4111 117.056 25.4361C117.14 25.4569 117.219 25.4939 117.289 25.5451C117.348 25.5913 117.394 25.6519 117.423 25.7211C117.454 25.7938 117.469 25.8722 117.468 25.9511C117.472 26.0144 117.463 26.0777 117.442 26.1375C117.421 26.1973 117.389 26.2522 117.346 26.2991C117.255 26.3844 117.143 26.4438 117.021 26.4711C117.099 26.4966 117.169 26.5394 117.228 26.5961C117.303 26.6728 117.362 26.7645 117.399 26.8651L117.518 27.1781C117.532 27.2168 117.542 27.2566 117.549 27.2971M117.04 25.9971C117.04 25.963 117.034 25.9291 117.022 25.8971C117.012 25.8638 116.992 25.8343 116.965 25.8121C116.933 25.7851 116.895 25.7656 116.854 25.7551C116.795 25.7393 116.734 25.7319 116.673 25.7331H116.443V26.2961H116.663C116.77 26.3076 116.877 26.2791 116.963 26.2161C116.99 26.1874 117.011 26.1536 117.025 26.1167C117.039 26.0798 117.045 26.0405 117.044 26.0011"
    fill="black" />
  <path
    d="M0.0171006 28.2871V5.80011C-0.0448137 4.99317 0.061813 4.18218 0.330204 3.41866C0.598596 2.65515 1.02288 1.95582 1.5761 1.36511C2.5621 0.437111 4.1741 0.0231111 6.4171 0.0231111C6.9631 0.0231111 12.1001 -0.0288889 12.4311 0.0231111V4.64811H9.4701C8.30738 4.62802 7.14609 4.73872 6.0081 4.97811C5.84842 5.15401 5.72902 5.3626 5.65821 5.58937C5.5874 5.81613 5.56689 6.05561 5.5981 6.29111V10.6801H10.9491V11.9121C10.9556 12.2734 10.8905 12.6324 10.7577 12.9684C10.6248 13.3044 10.4267 13.6109 10.1749 13.87C9.92313 14.1292 9.62253 14.3359 9.29046 14.4784C8.9584 14.6209 8.60142 14.6962 8.2401 14.7001H5.5981V28.2871H0.0171006Z"
    fill="black" />
  <path
    d="M13.9492 0.0231034H16.9042C17.6423 0.0223234 18.3506 0.313925 18.8742 0.834103C19.1393 1.07918 19.3495 1.37759 19.491 1.70972C19.6325 2.04184 19.7021 2.40016 19.6952 2.7611V28.2871H13.9492V0.0231034Z"
    fill="black" />
  <path
    d="M36.7054 21.5561H40.8054C40.3293 23.6665 39.1038 25.5326 37.3564 26.8081C35.4874 28.1213 33.239 28.7849 30.9564 28.6971C29.589 28.7703 28.2225 28.5354 26.958 28.0097C25.6934 27.4841 24.5631 26.6811 23.6504 25.6601C21.8991 23.6914 21.0234 20.8738 21.0234 17.2071C21.0234 13.7071 21.8718 10.9708 23.5684 8.99811C24.4809 7.97857 25.6103 7.17666 26.8737 6.65141C28.1371 6.12616 29.5021 5.89096 30.8684 5.96311C34.1524 5.96311 36.6964 6.94811 38.5004 8.91811C40.2524 10.9408 41.1281 13.7584 41.1274 17.3711V18.2711C41.1399 18.4653 41.1123 18.66 41.0464 18.8431H26.8464C26.7849 20.2101 27.2224 21.5528 28.0774 22.6211C28.4733 23.072 28.9683 23.4249 29.5235 23.6522C30.0787 23.8795 30.6791 23.975 31.2774 23.9311C32.1079 23.9565 32.9301 23.759 33.6584 23.3591C33.8299 23.3006 33.9846 23.2014 34.1094 23.0701L34.5624 22.6211C34.7071 22.352 34.9189 22.125 35.1774 21.9621C35.6246 21.6622 36.1581 21.5181 36.6954 21.5521M26.8464 15.1521H35.2194C35.2131 13.9601 34.8083 12.8045 34.0694 11.8691C33.6737 11.4732 33.1982 11.1659 32.6746 10.9678C32.151 10.7697 31.5912 10.6853 31.0324 10.7201C30.4876 10.7007 29.9446 10.7925 29.4365 10.9901C28.9284 11.1876 28.466 11.4867 28.0774 11.8691C27.259 12.7637 26.8179 13.94 26.8464 15.1521Z"
    fill="black" />
  <path
    d="M94.539 6.4551V19.2551C94.539 23.1411 93.5267 25.6854 91.502 26.8881C89.4941 28.0901 87.1943 28.717 84.854 28.7001C82.5717 28.6135 80.3512 27.9342 78.411 26.7291C76.469 25.5291 75.498 23.0398 75.498 19.2611V6.4551H81.244V20.4081C81.1966 20.9436 81.2759 21.4827 81.4755 21.9818C81.6751 22.4809 81.9894 22.926 82.393 23.2811C83.1384 23.875 84.0661 24.193 85.019 24.1811C85.9835 24.1886 86.9225 23.8716 87.685 23.2811C88.0995 22.9329 88.4241 22.4901 88.6314 21.9901C88.8387 21.49 88.9226 20.9474 88.876 20.4081V9.2441C88.8647 8.5105 89.1449 7.80237 89.655 7.2751C89.9134 7.00419 90.2261 6.79106 90.5727 6.64972C90.9193 6.50839 91.292 6.44206 91.666 6.4551H94.539Z"
    fill="black" />
  <path
    d="M94.9499 21.0641H100.531C100.527 21.5427 100.636 22.0154 100.85 22.4436C101.064 22.8717 101.377 23.243 101.762 23.5271C102.751 24.1187 103.894 24.404 105.045 24.3471C105.928 24.3713 106.803 24.1732 107.59 23.7711C107.883 23.6293 108.131 23.4081 108.305 23.1325C108.48 22.857 108.573 22.5381 108.575 22.2121C108.575 21.2281 107.426 20.4901 105.127 19.9981C104.377 19.888 103.636 19.7225 102.911 19.5031C100.012 18.7944 98.0699 17.9468 97.0839 16.9601C96.5388 16.4636 96.1094 15.8535 95.826 15.1729C95.5426 14.4923 95.4122 13.7577 95.4439 13.0211C95.4245 12.0357 95.6284 11.0586 96.0404 10.1632C96.4524 9.26787 97.0618 8.47739 97.8229 7.8511C99.6852 6.52407 101.938 5.85904 104.223 5.9621C106.638 5.83836 109.028 6.50118 111.035 7.8511C111.811 8.51053 112.439 9.32666 112.878 10.2459C113.316 11.1652 113.556 12.1668 113.58 13.1851H110.05C109.562 13.198 109.081 13.0743 108.66 12.828C108.24 12.5816 107.896 12.2225 107.669 11.7911C107.45 11.5718 107.231 11.3521 107.012 11.1321C106.213 10.5985 105.263 10.3394 104.304 10.3941C103.455 10.3405 102.607 10.5102 101.844 10.8861C101.602 11.0464 101.406 11.2673 101.276 11.5268C101.146 11.7863 101.086 12.0753 101.103 12.3651C101.103 13.2404 102.526 13.9788 105.371 14.5801C105.653 14.6777 105.941 14.7598 106.232 14.8261C106.461 14.8801 106.696 14.9082 106.932 14.9101C109.026 15.3119 111.012 16.1504 112.76 17.3711C113.283 17.8803 113.693 18.4946 113.962 19.1735C114.231 19.8525 114.353 20.5806 114.32 21.3101C114.373 22.3842 114.161 23.4549 113.703 24.428C113.245 25.401 112.554 26.2465 111.693 26.8901C110.051 28.0948 107.588 28.6971 104.305 28.6971C101.188 28.6971 98.8625 28.0674 97.3299 26.8081C96.5264 26.1449 95.8917 25.3006 95.4778 24.3445C95.0639 23.3884 94.8827 22.3478 94.9489 21.3081L94.9499 21.0641Z"
    fill="black" />
  <path
    d="M75.2915 6.36511H68.6455L64.8665 12.2001L61.8505 7.81811C61.7597 7.63352 61.6494 7.45919 61.5215 7.29811V7.32211C61.2864 7.02488 60.9867 6.78499 60.6453 6.62059C60.3038 6.45618 59.9294 6.37156 59.5505 6.37311L59.5575 6.36511H54.4645L54.4705 6.37311C53.9886 6.36667 53.5152 6.49964 53.1071 6.756C52.6991 7.01237 52.3738 7.3812 52.1705 7.81811L49.1545 12.2001L45.3775 6.36511H38.7305L45.6695 17.2911L38.7305 28.2181H45.3775L49.1555 22.3801L52.1705 26.7631C52.3733 27.2006 52.6984 27.57 53.1065 27.827C53.5146 28.0839 53.9883 28.2173 54.4705 28.2111L54.4645 28.2181H59.5575L59.5505 28.2111C60.0327 28.2173 60.5063 28.0839 60.9144 27.827C61.3225 27.57 61.6476 27.2006 61.8505 26.7631L64.8655 22.3821L68.6435 28.2181H75.2895L68.3535 17.2911L75.2915 6.36511ZM61.4165 17.5251L57.0165 24.3001L52.6045 17.5211L52.4525 17.2871L52.6045 17.0521L57.0165 10.2771L61.4165 17.0561L61.5685 17.2911L61.4165 17.5251Z"
    fill="#C8242A" />
</svg>
  