<svg width="760" height="720" viewBox="0 0 760 720" fill="none" xmlns="http://www.w3.org/2000/svg">
    <g clip-path="url(#clip0_422_625)">
        <rect width="760" height="720" fill="url(#paint0_diamond_422_625)" fill-opacity="0.5" />
        <g opacity="0.15">
            <circle opacity="0.5" cx="307" cy="800" r="172" stroke="#343434" stroke-opacity="0.5"
                stroke-width="16" />
            <mask id="mask0_422_625" style="mask-type:alpha" maskUnits="userSpaceOnUse" x="-203"
                y="-199" width="404" height="404">
                <circle cx="-1.03597" cy="2.96399" r="201" transform="rotate(-45 -1.03597 2.96399)"
                    fill="#757575" stroke="#FFA629" />
            </mask>
            <g mask="url(#mask0_422_625)">
                <line x1="-156.246" y1="169.488" x2="159.831" y2="-146.589" stroke="#757575" />
                <line x1="-110.991" y1="214.742" x2="205.086" y2="-101.334" stroke="#757575" />
                <line x1="-43.1088" y1="282.625" x2="272.968" y2="-33.452" stroke="#757575" />
                <line x1="-99.6773" y1="226.056" x2="216.399" y2="-90.0206" stroke="#757575" />
                <line x1="-133.618" y1="192.115" x2="182.458" y2="-123.962" stroke="#757575" />
                <line x1="-88.3636" y1="237.37" x2="227.713" y2="-78.7069" stroke="#757575" />
                <line x1="-122.305" y1="203.429" x2="193.772" y2="-112.648" stroke="#757575" />
                <line x1="-77.0499" y1="248.684" x2="239.027" y2="-67.3932" stroke="#757575" />
                <line x1="-144.932" y1="180.801" x2="171.145" y2="-135.275" stroke="#757575" />
                <line x1="-31.7951" y1="293.938" x2="284.282" y2="-22.1383" stroke="#757575" />
                <line x1="-65.7362" y1="259.997" x2="250.341" y2="-56.0795" stroke="#757575" />
                <line x1="-20.4814" y1="305.252" x2="295.595" y2="-10.8246" stroke="#757575" />
                <line x1="-54.4225" y1="271.311" x2="261.654" y2="-44.7658" stroke="#757575" />
                <line x1="-9.16764" y1="316.566" x2="306.909" y2="0.489006" stroke="#757575" />
                <line x1="-309.688" y1="6.14596" x2="6.38867" y2="-309.931" stroke="#757575" />
                <line x1="-264.433" y1="51.4007" x2="51.6435" y2="-264.676" stroke="#757575" />
                <line x1="-196.551" y1="119.283" x2="119.526" y2="-196.794" stroke="#757575" />
                <line x1="-253.12" y1="62.7144" x2="62.9565" y2="-253.362" stroke="#757575" />
                <line x1="-287.061" y1="28.7734" x2="29.0161" y2="-287.303" stroke="#757575" />
                <line x1="-241.806" y1="74.0282" x2="74.2709" y2="-242.049" stroke="#757575" />
                <line x1="-275.747" y1="40.0871" x2="40.3298" y2="-275.99" stroke="#757575" />
                <line x1="-230.492" y1="85.3419" x2="85.5847" y2="-230.735" stroke="#757575" />
                <line x1="-298.374" y1="17.4597" x2="17.7024" y2="-298.617" stroke="#757575" />
                <line x1="-185.237" y1="130.597" x2="130.839" y2="-185.48" stroke="#757575" />
                <line x1="-219.178" y1="96.6556" x2="96.8983" y2="-219.421" stroke="#757575" />
                <line x1="-173.923" y1="141.91" x2="142.153" y2="-174.166" stroke="#757575" />
                <line x1="-207.865" y1="107.969" x2="108.212" y2="-208.107" stroke="#757575" />
                <line x1="-162.61" y1="153.224" x2="153.467" y2="-162.853" stroke="#757575" />
            </g>
            <rect x="-96.5858" y="698" width="318.319" height="60" rx="30"
                transform="rotate(-45 -96.5858 698)" stroke="#E23336" stroke-width="2" />
            <rect x="-48.5858" y="775.5" width="214.021" height="52" rx="26"
                transform="rotate(-45 -48.5858 775.5)" stroke="#E23336" stroke-width="2" />
            <g opacity="0.5">
                <rect x="61.15" y="339.193" width="15.6162" height="52.054"
                    transform="rotate(-45 61.15 339.193)" fill="#343434" />
                <rect width="15.6162" height="52.054"
                    transform="matrix(-0.707107 -0.707107 -0.707107 0.707107 108.85 339.042)"
                    fill="#343434" />
            </g>
            <circle cx="243.83" cy="6.42249" r="2" transform="rotate(-45 243.83 6.42249)"
                fill="#E23336" />
            <circle cx="361.682" cy="45.7058" r="2" transform="rotate(-45 361.682 45.7058)"
                fill="#E23336" />
            <circle cx="322.398" cy="84.9896" r="2" transform="rotate(-45 322.398 84.9896)"
                fill="#E23336" />
            <circle cx="400.965" cy="6.42224" r="2" transform="rotate(-45 400.965 6.42224)"
                fill="#E23336" />
            <circle cx="381.322" cy="26.0641" r="2" transform="rotate(-45 381.322 26.0641)"
                fill="#E23336" />
            <circle cx="342.04" cy="65.3478" r="2" transform="rotate(-45 342.04 65.3478)"
                fill="#E23336" />
            <circle cx="322.399" cy="6.42236" r="2" transform="rotate(-45 322.399 6.42236)"
                fill="#E23336" />
            <circle cx="283.115" cy="45.7062" r="2" transform="rotate(-45 283.115 45.7062)"
                fill="#E23336" />
            <circle cx="302.757" cy="26.0643" r="2" transform="rotate(-45 302.757 26.0643)"
                fill="#E23336" />
            <circle cx="400.967" cy="84.9897" r="2" transform="rotate(-45 400.967 84.9897)"
                fill="#E23336" />
            <circle cx="479.535" cy="6.42236" r="2" transform="rotate(-45 479.535 6.42236)"
                fill="#E23336" />
            <circle cx="361.683" cy="124.274" r="2" transform="rotate(-45 361.683 124.274)"
                fill="#E23336" />
            <circle cx="440.249" cy="45.7062" r="2" transform="rotate(-45 440.249 45.7062)"
                fill="#E23336" />
            <circle cx="420.608" cy="65.3479" r="2" transform="rotate(-45 420.608 65.3479)"
                fill="#E23336" />
            <circle cx="381.324" cy="104.632" r="2" transform="rotate(-45 381.324 104.632)"
                fill="#E23336" />
            <circle cx="459.892" cy="26.0642" r="2" transform="rotate(-45 459.892 26.0642)"
                fill="#E23336" />
            <circle cx="263.473" cy="26.0642" r="2" transform="rotate(-45 263.473 26.0642)"
                fill="#E23336" />
            <circle cx="283.115" cy="6.42236" r="2" transform="rotate(-45 283.115 6.42236)"
                fill="#E23336" />
            <circle cx="381.325" cy="65.3479" r="2" transform="rotate(-45 381.325 65.3479)"
                fill="#E23336" />
            <circle cx="342.04" cy="104.632" r="2" transform="rotate(-45 342.04 104.632)"
                fill="#E23336" />
            <circle cx="420.607" cy="26.0643" r="2" transform="rotate(-45 420.607 26.0643)"
                fill="#E23336" />
            <circle cx="400.965" cy="45.7061" r="2" transform="rotate(-45 400.965 45.7061)"
                fill="#E23336" />
            <circle cx="361.682" cy="84.9899" r="2" transform="rotate(-45 361.682 84.9899)"
                fill="#E23336" />
            <circle cx="440.25" cy="6.42236" r="2" transform="rotate(-45 440.25 6.42236)"
                fill="#E23336" />
            <circle cx="342.04" cy="26.0642" r="2" transform="rotate(-45 342.04 26.0642)"
                fill="#E23336" />
            <circle cx="302.756" cy="65.348" r="2" transform="rotate(-45 302.756 65.348)"
                fill="#E23336" />
            <circle cx="361.68" cy="6.42236" r="2" transform="rotate(-45 361.68 6.42236)"
                fill="#E23336" />
            <circle cx="322.398" cy="45.7061" r="2" transform="rotate(-45 322.398 45.7061)"
                fill="#E23336" />
            <circle cx="362" cy="573" r="4" stroke="#E23336" stroke-width="2" />
            <circle cx="488" cy="573" r="4" stroke="#E23336" stroke-width="2" />
            <circle cx="404" cy="573" r="4" stroke="#E23336" stroke-width="2" />
            <circle cx="530" cy="573" r="4" stroke="#E23336" stroke-width="2" />
            <circle cx="446" cy="573" r="4" stroke="#E23336" stroke-width="2" />
            <circle cx="362" cy="615" r="4" stroke="#E23336" stroke-width="2" />
            <circle cx="488" cy="615" r="4" stroke="#E23336" stroke-width="2" />
            <circle cx="404" cy="615" r="4" stroke="#E23336" stroke-width="2" />
            <circle cx="530" cy="615" r="4" stroke="#E23336" stroke-width="2" />
            <circle cx="446" cy="615" r="4" stroke="#E23336" stroke-width="2" />
            <circle cx="362" cy="657" r="4" stroke="#E23336" stroke-width="2" />
            <circle cx="488" cy="657" r="4" stroke="#E23336" stroke-width="2" />
            <circle cx="404" cy="657" r="4" stroke="#343434" stroke-width="2" />
            <circle cx="530" cy="657" r="4" stroke="#E23336" stroke-width="2" />
            <circle cx="446" cy="657" r="4" stroke="#E23336" stroke-width="2" />
            <circle cx="362" cy="699" r="4" stroke="#E23336" stroke-width="2" />
            <circle cx="488" cy="699" r="4" stroke="#E23336" stroke-width="2" />
            <circle cx="404" cy="699" r="4" stroke="#E23336" stroke-width="2" />
            <circle cx="530" cy="699" r="4" stroke="#E23336" stroke-width="2" />
            <circle cx="446" cy="699" r="4" stroke="#343434" stroke-width="2" />
            <circle opacity="0.5" cx="763" cy="265" r="34" stroke="#E23336" stroke-width="20" />
            <circle cx="743.62" cy="699.911" r="3.15125" transform="rotate(45 743.62 699.911)"
                fill="#757575" />
            <circle cx="730.696" cy="712.835" r="3.15125" transform="rotate(45 730.696 712.835)"
                fill="#757575" />
            <circle cx="730.696" cy="686.987" r="3.15125" transform="rotate(45 730.696 686.987)"
                fill="#757575" />
            <circle cx="704.848" cy="712.835" r="3.15125" transform="rotate(45 704.848 712.835)"
                fill="#757575" />
            <circle cx="717.772" cy="699.911" r="3.15125" transform="rotate(45 717.772 699.911)"
                fill="#757575" />
            <circle cx="756.543" cy="712.835" r="3.15125" transform="rotate(45 756.543 712.835)"
                fill="#757575" />
            <circle cx="627.304" cy="686.987" r="3.15125" transform="rotate(45 627.304 686.987)"
                fill="#757575" />
            <circle cx="679" cy="635.291" r="3.15125" transform="rotate(45 679 635.291)"
                fill="#757575" />
            <circle cx="601.457" cy="712.835" r="3.15125" transform="rotate(45 601.457 712.835)"
                fill="#757575" />
            <circle cx="653.151" cy="661.139" r="3.15125" transform="rotate(45 653.151 661.139)"
                fill="#757575" />
            <circle cx="614.38" cy="699.911" r="3.15125" transform="rotate(45 614.38 699.911)"
                fill="#757575" />
            <circle cx="666.076" cy="648.215" r="3.15125" transform="rotate(45 666.076 648.215)"
                fill="#757575" />
            <circle cx="640.228" cy="674.063" r="3.15125" transform="rotate(45 640.228 674.063)"
                fill="#757575" />
            <circle cx="640.228" cy="699.911" r="3.15125" transform="rotate(45 640.228 699.911)"
                fill="#757575" />
            <circle cx="691.925" cy="648.215" r="3.15125" transform="rotate(45 691.925 648.215)"
                fill="#757575" />
            <circle cx="666.076" cy="674.063" r="3.15125" transform="rotate(45 666.076 674.063)"
                fill="#757575" />
            <circle cx="627.304" cy="712.835" r="3.15125" transform="rotate(45 627.304 712.835)"
                fill="#757575" />
            <circle cx="679" cy="661.139" r="3.15125" transform="rotate(45 679 661.139)"
                fill="#757575" />
            <circle cx="653.151" cy="686.987" r="3.15125" transform="rotate(45 653.151 686.987)"
                fill="#757575" />
            <circle cx="653.151" cy="712.835" r="3.15125" transform="rotate(45 653.151 712.835)"
                fill="#757575" />
            <circle cx="704.848" cy="661.139" r="3.15125" transform="rotate(45 704.848 661.139)"
                fill="#757575" />
            <circle cx="679" cy="686.987" r="3.15125" transform="rotate(45 679 686.987)"
                fill="#757575" />
            <circle cx="691.925" cy="674.063" r="3.15125" transform="rotate(45 691.925 674.063)"
                fill="#757575" />
            <circle cx="666.076" cy="699.911" r="3.15125" transform="rotate(45 666.076 699.911)"
                fill="#757575" />
            <circle cx="717.772" cy="674.063" r="3.15125" transform="rotate(45 717.772 674.063)"
                fill="#757575" />
            <circle cx="691.925" cy="699.911" r="3.15125" transform="rotate(45 691.925 699.911)"
                fill="#757575" />
            <circle cx="704.848" cy="686.987" r="3.15125" transform="rotate(45 704.848 686.987)"
                fill="#757575" />
            <circle cx="679" cy="712.835" r="3.15125" transform="rotate(45 679 712.835)"
                fill="#757575" />
            <path
                d="M792 25C792 71.4353 766.68 111.957 729.093 133.511M667 150C597.964 150 542 94.0356 542 25"
                stroke="#E23336" stroke-width="2" />
            <mask id="mask1_422_625" style="mask-type:alpha" maskUnits="userSpaceOnUse" x="528"
                y="75" width="101" height="101">
                <circle cx="50" cy="50" r="49.5"
                    transform="matrix(0.707107 0.707107 0.707107 -0.707107 508 125.066)"
                    fill="#757575" stroke="#FFA629" />
            </mask>
            <g mask="url(#mask1_422_625)">
                <line y1="-0.5" x2="110.918" y2="-0.5"
                    transform="matrix(0.707107 0.707107 0.707107 -0.707107 540.284 83.6572)"
                    stroke="#757575" />
                <line y1="-0.5" x2="110.918" y2="-0.5"
                    transform="matrix(0.707107 0.707107 0.707107 -0.707107 551.513 72.4279)"
                    stroke="#757575" />
                <line y1="-0.5" x2="110.918" y2="-0.5"
                    transform="matrix(0.707107 0.707107 0.707107 -0.707107 568.358 55.5835)"
                    stroke="#757575" />
                <line y1="-0.5" x2="110.918" y2="-0.5"
                    transform="matrix(0.707107 0.707107 0.707107 -0.707107 554.321 69.6205)"
                    stroke="#757575" />
                <line y1="-0.5" x2="110.918" y2="-0.5"
                    transform="matrix(0.707107 0.707107 0.707107 -0.707107 545.899 78.0425)"
                    stroke="#757575" />
                <line y1="-0.5" x2="110.918" y2="-0.5"
                    transform="matrix(0.707107 0.707107 0.707107 -0.707107 557.128 66.8131)"
                    stroke="#757575" />
                <line y1="-0.5" x2="110.918" y2="-0.5"
                    transform="matrix(0.707107 0.707107 0.707107 -0.707107 548.706 75.2352)"
                    stroke="#757575" />
                <line y1="-0.5" x2="110.918" y2="-0.5"
                    transform="matrix(0.707107 0.707107 0.707107 -0.707107 559.936 64.0057)"
                    stroke="#757575" />
                <line y1="-0.5" x2="110.918" y2="-0.5"
                    transform="matrix(0.707107 0.707107 0.707107 -0.707107 543.092 80.8499)"
                    stroke="#757575" />
                <line y1="-0.5" x2="110.918" y2="-0.5"
                    transform="matrix(0.707107 0.707107 0.707107 -0.707107 571.165 52.7761)"
                    stroke="#757575" />
                <line y1="-0.5" x2="110.918" y2="-0.5"
                    transform="matrix(0.707107 0.707107 0.707107 -0.707107 562.743 61.1984)"
                    stroke="#757575" />
                <line y1="-0.5" x2="110.918" y2="-0.5"
                    transform="matrix(0.707107 0.707107 0.707107 -0.707107 573.972 49.9688)"
                    stroke="#757575" />
                <line y1="-0.5" x2="110.918" y2="-0.5"
                    transform="matrix(0.707107 0.707107 0.707107 -0.707107 565.551 58.391)"
                    stroke="#757575" />
                <line y1="-0.5" x2="110.918" y2="-0.5"
                    transform="matrix(0.707107 0.707107 0.707107 -0.707107 576.78 47.1615)"
                    stroke="#757575" />
                <line y1="-0.5" x2="110.918" y2="-0.5"
                    transform="matrix(0.707107 0.707107 0.707107 -0.707107 502.209 124.189)"
                    stroke="#757575" />
                <line y1="-0.5" x2="110.918" y2="-0.5"
                    transform="matrix(0.707107 0.707107 0.707107 -0.707107 513.438 112.959)"
                    stroke="#757575" />
                <line y1="-0.5" x2="110.918" y2="-0.5"
                    transform="matrix(0.707107 0.707107 0.707107 -0.707107 530.282 96.115)"
                    stroke="#757575" />
                <line y1="-0.5" x2="110.918" y2="-0.5"
                    transform="matrix(0.707107 0.707107 0.707107 -0.707107 516.246 110.152)"
                    stroke="#757575" />
                <line y1="-0.5" x2="110.918" y2="-0.5"
                    transform="matrix(0.707107 0.707107 0.707107 -0.707107 507.824 118.574)"
                    stroke="#757575" />
                <line y1="-0.5" x2="110.918" y2="-0.5"
                    transform="matrix(0.707107 0.707107 0.707107 -0.707107 519.054 107.344)"
                    stroke="#757575" />
                <line y1="-0.5" x2="110.918" y2="-0.5"
                    transform="matrix(0.707107 0.707107 0.707107 -0.707107 510.631 115.767)"
                    stroke="#757575" />
                <line y1="-0.5" x2="110.918" y2="-0.5"
                    transform="matrix(0.707107 0.707107 0.707107 -0.707107 521.861 104.537)"
                    stroke="#757575" />
                <line y1="-0.5" x2="110.918" y2="-0.5"
                    transform="matrix(0.707107 0.707107 0.707107 -0.707107 505.017 121.381)"
                    stroke="#757575" />
                <line y1="-0.5" x2="110.918" y2="-0.5"
                    transform="matrix(0.707107 0.707107 0.707107 -0.707107 533.09 93.3076)"
                    stroke="#757575" />
                <line y1="-0.5" x2="110.918" y2="-0.5"
                    transform="matrix(0.707107 0.707107 0.707107 -0.707107 524.668 101.73)"
                    stroke="#757575" />
                <line y1="-0.5" x2="110.918" y2="-0.5"
                    transform="matrix(0.707107 0.707107 0.707107 -0.707107 535.897 90.5002)"
                    stroke="#757575" />
                <line y1="-0.5" x2="110.918" y2="-0.5"
                    transform="matrix(0.707107 0.707107 0.707107 -0.707107 527.476 98.9224)"
                    stroke="#757575" />
                <line y1="-0.5" x2="110.918" y2="-0.5"
                    transform="matrix(0.707107 0.707107 0.707107 -0.707107 538.705 87.6929)"
                    stroke="#757575" />
            </g>
            <path
                d="M665.925 26.9992L670.612 21.4117C670.691 21.3188 670.625 21.1777 670.503 21.1777H669.078C668.994 21.1777 668.914 21.2152 668.859 21.2795L664.993 25.8884L661.127 21.2795C661.073 21.2152 660.993 21.1777 660.907 21.1777H659.482C659.36 21.1777 659.294 21.3188 659.373 21.4117L664.06 26.9992L659.373 32.5867C659.355 32.6074 659.344 32.6327 659.34 32.6596C659.337 32.6865 659.341 32.7139 659.352 32.7386C659.364 32.7632 659.382 32.784 659.405 32.7985C659.428 32.8131 659.455 32.8207 659.482 32.8206H660.907C660.991 32.8206 661.071 32.7831 661.127 32.7188L664.993 28.1099L668.859 32.7188C668.912 32.7831 668.993 32.8206 669.078 32.8206H670.503C670.625 32.8206 670.691 32.6795 670.612 32.5867L665.925 26.9992Z"
                fill="#282A2B" />
            <path
                d="M689.925 26.9992L694.612 21.4117C694.691 21.3188 694.625 21.1777 694.503 21.1777H693.078C692.994 21.1777 692.914 21.2152 692.859 21.2795L688.993 25.8884L685.127 21.2795C685.073 21.2152 684.993 21.1777 684.907 21.1777H683.482C683.36 21.1777 683.294 21.3188 683.373 21.4117L688.06 26.9992L683.373 32.5867C683.355 32.6074 683.344 32.6327 683.34 32.6596C683.337 32.6865 683.341 32.7139 683.352 32.7386C683.364 32.7632 683.382 32.784 683.405 32.7985C683.428 32.8131 683.455 32.8207 683.482 32.8206H684.907C684.991 32.8206 685.071 32.7831 685.127 32.7188L688.993 28.1099L692.859 32.7188C692.912 32.7831 692.993 32.8206 693.078 32.8206H694.503C694.625 32.8206 694.691 32.6795 694.612 32.5867L689.925 26.9992Z"
                fill="#282A2B" />
            <path
                d="M713.925 26.9992L718.612 21.4117C718.691 21.3188 718.625 21.1777 718.503 21.1777H717.078C716.994 21.1777 716.914 21.2152 716.859 21.2795L712.993 25.8884L709.127 21.2795C709.073 21.2152 708.993 21.1777 708.907 21.1777H707.482C707.36 21.1777 707.294 21.3188 707.373 21.4117L712.06 26.9992L707.373 32.5867C707.355 32.6074 707.344 32.6327 707.34 32.6596C707.337 32.6865 707.341 32.7139 707.352 32.7386C707.364 32.7632 707.382 32.784 707.405 32.7985C707.428 32.8131 707.455 32.8207 707.482 32.8206H708.907C708.991 32.8206 709.071 32.7831 709.127 32.7188L712.993 28.1099L716.859 32.7188C716.912 32.7831 716.993 32.8206 717.078 32.8206H718.503C718.625 32.8206 718.691 32.6795 718.612 32.5867L713.925 26.9992Z"
                fill="#E23336" />
            <path
                d="M665.925 74.9992L670.612 69.4117C670.691 69.3188 670.625 69.1777 670.503 69.1777H669.078C668.994 69.1777 668.914 69.2152 668.859 69.2795L664.993 73.8884L661.127 69.2795C661.073 69.2152 660.993 69.1777 660.907 69.1777H659.482C659.36 69.1777 659.294 69.3188 659.373 69.4117L664.06 74.9992L659.373 80.5867C659.355 80.6074 659.344 80.6327 659.34 80.6596C659.337 80.6865 659.341 80.7139 659.352 80.7386C659.364 80.7632 659.382 80.784 659.405 80.7985C659.428 80.8131 659.455 80.8207 659.482 80.8206H660.907C660.991 80.8206 661.071 80.7831 661.127 80.7188L664.993 76.1099L668.859 80.7188C668.912 80.7831 668.993 80.8206 669.078 80.8206H670.503C670.625 80.8206 670.691 80.6795 670.612 80.5867L665.925 74.9992Z"
                fill="#282A2B" />
            <path
                d="M689.925 74.9992L694.612 69.4117C694.691 69.3188 694.625 69.1777 694.503 69.1777H693.078C692.994 69.1777 692.914 69.2152 692.859 69.2795L688.993 73.8884L685.127 69.2795C685.073 69.2152 684.993 69.1777 684.907 69.1777H683.482C683.36 69.1777 683.294 69.3188 683.373 69.4117L688.06 74.9992L683.373 80.5867C683.355 80.6074 683.344 80.6327 683.34 80.6596C683.337 80.6865 683.341 80.7139 683.352 80.7386C683.364 80.7632 683.382 80.784 683.405 80.7985C683.428 80.8131 683.455 80.8207 683.482 80.8206H684.907C684.991 80.8206 685.071 80.7831 685.127 80.7188L688.993 76.1099L692.859 80.7188C692.912 80.7831 692.993 80.8206 693.078 80.8206H694.503C694.625 80.8206 694.691 80.6795 694.612 80.5867L689.925 74.9992Z"
                fill="#282A2B" />
            <path
                d="M713.925 74.9992L718.612 69.4117C718.691 69.3188 718.625 69.1777 718.503 69.1777H717.078C716.994 69.1777 716.914 69.2152 716.859 69.2795L712.993 73.8884L709.127 69.2795C709.073 69.2152 708.993 69.1777 708.907 69.1777H707.482C707.36 69.1777 707.294 69.3188 707.373 69.4117L712.06 74.9992L707.373 80.5867C707.355 80.6074 707.344 80.6327 707.34 80.6596C707.337 80.6865 707.341 80.7139 707.352 80.7386C707.364 80.7632 707.382 80.784 707.405 80.7985C707.428 80.8131 707.455 80.8207 707.482 80.8206H708.907C708.991 80.8206 709.071 80.7831 709.127 80.7188L712.993 76.1099L716.859 80.7188C716.912 80.7831 716.993 80.8206 717.078 80.8206H718.503C718.625 80.8206 718.691 80.6795 718.612 80.5867L713.925 74.9992Z"
                fill="#282A2B" />
            <path
                d="M665.925 50.9992L670.612 45.4117C670.691 45.3188 670.625 45.1777 670.503 45.1777H669.078C668.994 45.1777 668.914 45.2152 668.859 45.2795L664.993 49.8884L661.127 45.2795C661.073 45.2152 660.993 45.1777 660.907 45.1777H659.482C659.36 45.1777 659.294 45.3188 659.373 45.4117L664.06 50.9992L659.373 56.5867C659.355 56.6074 659.344 56.6327 659.34 56.6596C659.337 56.6865 659.341 56.7139 659.352 56.7386C659.364 56.7632 659.382 56.784 659.405 56.7985C659.428 56.8131 659.455 56.8207 659.482 56.8206H660.907C660.991 56.8206 661.071 56.7831 661.127 56.7188L664.993 52.1099L668.859 56.7188C668.912 56.7831 668.993 56.8206 669.078 56.8206H670.503C670.625 56.8206 670.691 56.6795 670.612 56.5867L665.925 50.9992Z"
                fill="#282A2B" />
            <path
                d="M689.925 50.9992L694.612 45.4117C694.691 45.3188 694.625 45.1777 694.503 45.1777H693.078C692.994 45.1777 692.914 45.2152 692.859 45.2795L688.993 49.8884L685.127 45.2795C685.073 45.2152 684.993 45.1777 684.907 45.1777H683.482C683.36 45.1777 683.294 45.3188 683.373 45.4117L688.06 50.9992L683.373 56.5867C683.355 56.6074 683.344 56.6327 683.34 56.6596C683.337 56.6865 683.341 56.7139 683.352 56.7386C683.364 56.7632 683.382 56.784 683.405 56.7985C683.428 56.8131 683.455 56.8207 683.482 56.8206H684.907C684.991 56.8206 685.071 56.7831 685.127 56.7188L688.993 52.1099L692.859 56.7188C692.912 56.7831 692.993 56.8206 693.078 56.8206H694.503C694.625 56.8206 694.691 56.6795 694.612 56.5867L689.925 50.9992Z"
                fill="#282A2B" />
            <path
                d="M713.925 50.9992L718.612 45.4117C718.691 45.3188 718.625 45.1777 718.503 45.1777H717.078C716.994 45.1777 716.914 45.2152 716.859 45.2795L712.993 49.8884L709.127 45.2795C709.073 45.2152 708.993 45.1777 708.907 45.1777H707.482C707.36 45.1777 707.294 45.3188 707.373 45.4117L712.06 50.9992L707.373 56.5867C707.355 56.6074 707.344 56.6327 707.34 56.6596C707.337 56.6865 707.341 56.7139 707.352 56.7386C707.364 56.7632 707.382 56.784 707.405 56.7985C707.428 56.8131 707.455 56.8207 707.482 56.8206H708.907C708.991 56.8206 709.071 56.7831 709.127 56.7188L712.993 52.1099L716.859 56.7188C716.912 56.7831 716.993 56.8206 717.078 56.8206H718.503C718.625 56.8206 718.691 56.6795 718.612 56.5867L713.925 50.9992Z"
                fill="#282A2B" />
            <circle cx="723" cy="136" r="7" stroke="#E23336" stroke-width="2" />
            <path
                d="M74 264L61 251L72 240L85 253L98 240L109 251L96 264L109 277L98 288L85 275L72 288L61 277L74 264Z"
                stroke="#353535" stroke-width="2" />
            <path
                d="M670.833 428L660 417.167L669.167 408L680 418.833L690.833 408L700 417.167L689.167 428L700 438.833L690.833 448L680 437.167L669.167 448L660 438.833L670.833 428Z"
                stroke="#353535" stroke-width="2" />
            <path
                d="M670.833 484L660 473.167L669.167 464L680 474.833L690.833 464L700 473.167L689.167 484L700 494.833L690.833 504L680 493.167L669.167 504L660 494.833L670.833 484Z"
                stroke="#353535" stroke-width="2" />
            <path
                d="M670.833 540L660 529.167L669.167 520L680 530.833L690.833 520L700 529.167L689.167 540L700 550.833L690.833 560L680 549.167L669.167 560L660 550.833L670.833 540Z"
                stroke="#E23336" stroke-width="2" />
            <g opacity="0.5">
                <rect x="61.15" y="163.192" width="15.6162" height="52.054"
                    transform="rotate(-45 61.15 163.192)" fill="#E23336" />
                <rect width="15.6162" height="52.054"
                    transform="matrix(-0.707107 -0.707107 -0.707107 0.707107 108.85 163.042)"
                    fill="#E23336" />
            </g>
        </g>
    </g>
    <defs>
        <radialGradient id="paint0_diamond_422_625" cx="0" cy="0" r="1"
            gradientUnits="userSpaceOnUse"
            gradientTransform="translate(380 360) rotate(90) scale(955 1008.06)">
            <stop offset="0.114583" stop-color="#0C0C0C" />
            <stop offset="0.411458" stop-color="#1B1B1B" />
            <stop offset="0.635417" stop-color="#202020" />
            <stop offset="0.859375" stop-color="#2D2D2D" />
        </radialGradient>
        <clipPath id="clip0_422_625">
            <rect width="760" height="720" fill="white" />
        </clipPath>
    </defs>
</svg>
    