<svg width="50" height="34" viewBox="0 0 50 34" fill="none" xmlns="http://www.w3.org/2000/svg">
    <path
        d="M49.2109 16.0703C49.2109 7.30078 38.3086 0.140625 24.8594 0.140625C11.3984 0.148438 0.5 7.30078 0.5 16.0703C0.5 16.3008 0.5 16.9219 0.5 17C0.5 26.3086 10.0313 33.8516 24.8516 33.8516C39.7617 33.8516 49.1992 26.3086 49.1992 17V16.0703H49.2109Z"
        fill="#2A3375" />
    <path
        d="M48.2695 16.0703C48.2695 24.3398 37.7891 31.0508 24.8594 31.0508C11.9297 31.0508 1.44141 24.3398 1.44141 16.0703C1.44141 7.80078 11.9219 1.08984 24.8516 1.08984C37.7813 1.08984 48.2695 7.78906 48.2695 16.0703Z"
        fill="#FFD100" />
    <path
        d="M17.0781 11.3398C17.0703 11.3594 16.8281 11.6094 16.9882 11.8008C17.3593 12.2695 18.4999 12.5391 19.6484 12.2812C20.3398 12.1289 21.2187 11.4219 22.0703 10.75C22.9882 10.0195 23.9101 9.28125 24.8281 8.98828C25.8085 8.67969 26.4296 8.80859 26.8515 8.94141C27.3007 9.07812 27.8398 9.37109 28.6913 10.0117C30.289 11.2109 36.7304 16.8398 37.8515 17.8086C38.7499 17.4102 42.7304 15.6914 48.1406 14.5C47.6718 11.6094 45.9101 8.96875 43.2499 6.80859C39.539 8.37109 34.9999 9.17969 30.5703 7.01953C30.5507 7.01172 28.1484 5.87109 25.7812 5.92969C22.2617 6.01172 20.7382 7.53125 19.121 9.14844L17.0781 11.3398Z"
        fill="white" />
    <path
        d="M37.5898 18.4219C37.5117 18.3516 30.0195 11.7891 28.3203 10.5117C27.3398 9.76953 26.7891 9.57812 26.2188 9.51172C25.9219 9.46875 25.5117 9.53125 25.2188 9.60938C24.4297 9.82031 23.3984 10.5195 22.4805 11.2383C21.5312 12 20.6289 12.7109 19.8008 12.8984C18.7383 13.1406 17.4414 12.8594 16.8516 12.4609C16.6094 12.3008 16.4414 12.1094 16.3594 11.9219C16.1406 11.4102 16.5391 11.0117 16.6094 10.9414L18.6797 8.69922C18.9219 8.46094 19.1602 8.21875 19.4102 7.98047C18.7383 8.07031 18.1211 8.23828 17.5195 8.39844C16.7695 8.60938 16.0508 8.80859 15.3203 8.80859C15.0195 8.80859 13.3789 8.53906 13.0703 8.46094C11.1992 7.94922 9.55078 7.44922 7.10156 6.30078C4.16016 8.48828 2.19141 11.2305 1.62109 14.2383C2.03906 14.3516 2.71875 14.5508 3.01172 14.6211C9.67187 16.1016 11.7383 17.6289 12.1211 17.9414C12.5312 17.4883 13.1094 17.1992 13.7695 17.1992C14.5117 17.1992 15.1719 17.5703 15.5703 18.1406C15.9492 17.8398 16.4805 17.5781 17.1602 17.5781C17.4688 17.5781 17.7891 17.6406 18.1094 17.75C18.8594 18.0117 19.25 18.5117 19.4492 18.9609C19.6992 18.8516 20.0117 18.7617 20.3789 18.7617C20.7383 18.7617 21.1094 18.8398 21.4883 19C22.7188 19.5312 22.9102 20.7305 22.8008 21.6406C22.8906 21.6289 22.9805 21.6289 23.0703 21.6289C24.5313 21.6289 25.7109 22.8086 25.7109 24.2695C25.7109 24.7188 25.5898 25.1406 25.3906 25.5195C25.7891 25.7383 26.8008 26.25 27.6797 26.1289C28.3906 26.0391 28.6602 25.8008 28.75 25.6602C28.8203 25.5703 28.8906 25.4609 28.8203 25.3789L26.9414 23.2891C26.9414 23.2891 26.6289 23 26.7305 22.8789C26.8398 22.7617 27.0313 22.9297 27.1602 23.0391C28.1211 23.8398 29.2812 25.0391 29.2812 25.0391C29.3008 25.0508 29.3789 25.2109 29.8086 25.2812C30.1797 25.3516 30.8398 25.3086 31.2891 24.9297C31.4102 24.8398 31.5195 24.7188 31.6211 24.6016C31.6094 24.6094 31.6094 24.6094 31.6016 24.6211C32.0781 24.0117 31.5508 23.3789 31.5508 23.3789L29.3594 20.9219C29.3594 20.9219 29.0508 20.6289 29.1484 20.5117C29.25 20.4102 29.4492 20.5586 29.5781 20.6797C30.2695 21.2617 31.2617 22.25 32.1992 23.1719C32.3789 23.3008 33.2109 23.8203 34.3008 23.1016C34.9609 22.6602 35.1016 22.1289 35.0781 21.7305C35.0312 21.1992 34.6211 20.8203 34.6211 20.8203L31.6211 17.8086C31.6211 17.8086 31.3008 17.5391 31.4219 17.3984C31.5117 17.2812 31.7188 17.4492 31.8516 17.5586C32.8008 18.3594 35.3906 20.7305 35.3906 20.7305C35.4297 20.7617 36.3203 21.3906 37.4219 20.6914C37.8086 20.4414 38.0703 20.0586 38.0898 19.6211C38.1289 18.8711 37.5898 18.4219 37.5898 18.4219Z"
        fill="white" />
    <path
        d="M23.0586 22.2383C22.6016 22.2305 22.0898 22.5117 22.0195 22.4688C21.9805 22.4492 22.0508 22.2617 22.0898 22.1484C22.1289 22.0391 22.75 20.1992 21.2617 19.5586C20.1211 19.0703 19.4219 19.6211 19.1797 19.8711C19.1211 19.9297 19.0898 19.9297 19.0781 19.8516C19.0586 19.5195 18.9102 18.6211 17.9219 18.3203C16.5117 17.8906 15.6094 18.8711 15.3789 19.2305C15.2813 18.4297 14.6016 17.8008 13.7695 17.8008C12.8711 17.8008 12.1406 18.5312 12.1289 19.4297C12.1289 20.3281 12.8594 21.0586 13.7617 21.0586C14.1992 21.0586 14.6016 20.8906 14.8906 20.6016C14.8984 20.6094 14.8984 20.6211 14.8984 20.6602C14.8281 21.0586 14.6992 22.5313 16.2383 23.1289C16.8594 23.3711 17.3789 23.1914 17.8203 22.8906C17.9492 22.8008 17.9687 22.8398 17.9492 22.9609C17.8906 23.3398 17.9609 24.1484 19.1016 24.6094C19.9609 24.9609 20.4687 24.6016 20.8086 24.2891C20.9609 24.1602 21 24.1797 21 24.3789C21.0391 25.4688 21.9492 26.3398 23.0508 26.3398C24.1914 26.3398 25.1094 25.4219 25.1094 24.2891C25.1094 23.1602 24.1914 22.25 23.0586 22.2383Z"
        fill="white" />
    <path
        d="M37.8789 17.6289C35.5703 15.6094 30.2305 10.9687 28.7812 9.89062C27.9492 9.26953 27.3906 8.9414 26.8984 8.78906C26.6797 8.71875 26.3711 8.64844 25.9688 8.64844C25.6016 8.64844 25.2109 8.71875 24.7891 8.85156C23.8594 9.14844 22.9219 9.89062 22.0195 10.6016L21.9688 10.6406C21.1289 11.3086 20.2617 12 19.6094 12.1406C19.3203 12.1992 19.0313 12.2383 18.7383 12.2383C18.0117 12.2383 17.3398 12.0312 17.1016 11.7109C17.0586 11.6602 17.0898 11.5703 17.1797 11.4492L17.1914 11.4297L19.2188 9.23828C20.8086 7.64844 22.3086 6.14844 25.7812 6.07031C25.8398 6.07031 25.8984 6.07031 25.9492 6.07031C28.1016 6.07031 30.2617 7.03906 30.5 7.14844C32.5195 8.14062 34.6016 8.64062 36.6992 8.64062C38.8789 8.64062 41.1406 8.10156 43.5117 7.01172C43.25 6.78906 42.9688 6.57031 42.6914 6.35937C40.6094 7.26172 38.6289 7.71875 36.7109 7.71875C34.7617 7.71875 32.8008 7.25 30.9102 6.32031C30.8086 6.26953 28.4297 5.14844 25.9609 5.14844C25.8984 5.14844 25.8281 5.14844 25.7617 5.14844C22.8516 5.21875 21.2188 6.25 20.1094 7.14844C19.0391 7.17969 18.1211 7.42969 17.2891 7.66016C16.5586 7.85937 15.9219 8.03906 15.3086 8.03906C15.0586 8.03906 14.6016 8.01953 14.5586 8.01953C13.8516 8 10.2695 7.12109 7.42188 6.03906C7.12891 6.25 6.85156 6.46094 6.57812 6.67187C9.55078 7.89062 13.1719 8.82812 14.3203 8.91016C14.6406 8.92969 14.9805 8.96875 15.3203 8.96875C16.0781 8.96875 16.8281 8.76172 17.5586 8.55078C17.9883 8.42969 18.4688 8.30078 18.9688 8.19922C18.8398 8.32812 18.6992 8.46094 18.5703 8.60156L16.5117 10.8281C16.3516 10.9883 15.9883 11.4297 16.2305 11.9687C16.3203 12.1914 16.5117 12.3984 16.7695 12.5703C17.2617 12.8984 18.1406 13.1289 18.9609 13.1289C19.2695 13.1289 19.5586 13.1016 19.8281 13.0391C20.6992 12.8516 21.6016 12.1211 22.5586 11.3594C23.3281 10.75 24.4219 9.98047 25.25 9.75C25.4805 9.69141 25.7695 9.64844 26 9.64844C26.0703 9.64844 26.1289 9.64844 26.1914 9.66016C26.7383 9.73047 27.2695 9.92187 28.2188 10.6289C29.9102 11.8984 37.4219 18.4609 37.4883 18.5312C37.4883 18.5312 37.9688 18.9492 37.9414 19.6289C37.9219 20.0117 37.7109 20.3516 37.3398 20.5898C37.0195 20.7891 36.6914 20.8984 36.3594 20.8984C35.8594 20.8984 35.5117 20.6602 35.4883 20.6484C35.4609 20.6289 32.8906 18.2695 31.9492 17.4805C31.8008 17.3594 31.6484 17.2383 31.5117 17.2383C31.4297 17.2383 31.3594 17.2695 31.3086 17.3281C31.1602 17.5117 31.3281 17.7695 31.5195 17.9297L34.5195 20.9492C34.5195 20.9492 34.8906 21.3008 34.9297 21.7617C34.9492 22.2617 34.7109 22.6797 34.2188 23C33.8711 23.2305 33.5117 23.3516 33.1602 23.3516C32.6992 23.3516 32.3789 23.1406 32.3008 23.0898L31.8711 22.6719C31.0781 21.8984 30.2695 21.0898 29.6797 20.6016C29.5391 20.4805 29.3789 20.3711 29.2305 20.3711C29.1602 20.3711 29.0898 20.3984 29.0391 20.4492C28.9688 20.5312 28.9219 20.6602 29.0898 20.8906C29.1602 20.9805 29.2383 21.0586 29.2383 21.0586L31.4297 23.5195C31.4492 23.5391 31.8789 24.0586 31.4805 24.5703L31.3984 24.6719C31.3281 24.7383 31.2617 24.8086 31.1992 24.8711C30.8281 25.1797 30.3281 25.2109 30.1289 25.2109C30.0195 25.2109 29.9219 25.1992 29.8281 25.1797C29.6094 25.1406 29.4687 25.0781 29.3984 25L29.3711 24.9688C29.25 24.8516 28.1484 23.7187 27.2305 22.9609C27.1094 22.8594 26.9609 22.7305 26.8008 22.7305C26.7188 22.7305 26.6602 22.7617 26.6016 22.8203C26.4219 23.0195 26.6914 23.3086 26.8086 23.4219L28.6797 25.4805C28.6797 25.5 28.6484 25.5391 28.6094 25.6094C28.5391 25.6992 28.3203 25.9297 27.6406 26.0117C27.5586 26.0195 27.4688 26.0312 27.3906 26.0312C26.6914 26.0312 25.9492 25.6914 25.5586 25.4883C25.7305 25.1211 25.8281 24.7109 25.8281 24.3086C25.8281 22.7695 24.5781 21.5195 23.0391 21.5195C23.0117 21.5195 22.9688 21.5195 22.9414 21.5195C22.9883 20.8203 22.8906 19.4883 21.5312 18.8984C21.1406 18.7305 20.75 18.6406 20.3594 18.6406C20.0586 18.6406 19.7812 18.6914 19.5117 18.7891C19.2305 18.2383 18.7617 17.8398 18.1484 17.6289C17.8086 17.5117 17.4805 17.4492 17.1484 17.4492C16.5781 17.4492 16.0586 17.6211 15.5898 17.9492C15.1406 17.3906 14.4687 17.0586 13.7617 17.0586C13.1406 17.0586 12.5391 17.3086 12.1016 17.75C11.5195 17.3086 9.21094 15.8398 3.03906 14.4414C2.73828 14.3711 2.05078 14.1797 1.62891 14.0508C1.55859 14.3789 1.51172 14.7187 1.46875 15.0586C1.46875 15.0586 2.60938 15.3281 2.82812 15.3789C9.14062 16.7812 11.2187 18.2383 11.5703 18.5117C11.4492 18.8008 11.3906 19.1094 11.3906 19.4219C11.3906 20.7187 12.4492 21.7812 13.75 21.7812C13.8984 21.7812 14.0391 21.7695 14.1797 21.7383C14.3789 22.6992 15 23.4297 15.9609 23.8008C16.2383 23.9102 16.5195 23.9609 16.8008 23.9609C16.9805 23.9609 17.1602 23.9414 17.3398 23.8906C17.5195 24.3398 17.9219 24.8984 18.8086 25.2617C19.1211 25.3906 19.4297 25.4492 19.7383 25.4492C19.9883 25.4492 20.2305 25.4102 20.4609 25.3203C20.8906 26.3594 21.8984 27.0508 23.0391 27.0508C23.7891 27.0508 24.5117 26.75 25.0391 26.1992C25.4883 26.4492 26.4414 26.8984 27.3984 26.8984C27.5195 26.8984 27.6406 26.8906 27.7617 26.8789C28.7109 26.7617 29.1602 26.3906 29.3594 26.1016C29.3984 26.0508 29.4297 26 29.4609 25.9414C29.6797 26 29.9297 26.0586 30.2188 26.0586C30.7383 26.0586 31.2383 25.8789 31.75 25.5117C32.25 25.1484 32.6016 24.6406 32.6484 24.1992C32.6484 24.1914 32.6484 24.1914 32.6484 24.1797C32.8203 24.2109 32.9883 24.2305 33.1602 24.2305C33.6992 24.2305 34.2187 24.0586 34.7305 23.7305C35.6992 23.0898 35.8711 22.2617 35.8516 21.7188C36.0195 21.7617 36.1914 21.7695 36.3711 21.7695C36.8711 21.7695 37.3711 21.6211 37.8398 21.3203C38.4414 20.9414 38.8008 20.3516 38.8594 19.6602C38.8984 19.1914 38.7813 18.7187 38.5391 18.3203C40.1719 17.6211 43.8906 16.2617 48.2695 15.2695C48.2383 14.9297 48.1914 14.5898 48.1289 14.2617C42.8203 15.4805 38.8711 17.1914 37.8789 17.6289ZM23.0586 26.1992C22.0312 26.1992 21.1914 25.3984 21.1602 24.3789C21.1602 24.2891 21.1484 24.0586 20.9492 24.0586C20.8711 24.0586 20.8008 24.1094 20.7188 24.1797C20.4883 24.3906 20.2109 24.6016 19.7812 24.6016C19.5898 24.6016 19.3789 24.5586 19.1602 24.4688C18.0703 24.0312 18.0586 23.2812 18.1016 22.9805C18.1094 22.8984 18.1211 22.8203 18.0586 22.75L18 22.6992H17.9297C17.8711 22.6992 17.8203 22.7188 17.7383 22.7812C17.4297 23 17.1211 23.1094 16.8203 23.1094C16.6484 23.1094 16.4805 23.0781 16.3008 23.0117C14.8711 22.4492 14.9805 21.1016 15.0508 20.6992C15.0586 20.6211 15.0391 20.5508 14.9883 20.5117L14.8906 20.4297L14.8008 20.5C14.5195 20.7695 14.1602 20.9219 13.7695 20.9219C12.9492 20.9219 12.2812 20.25 12.2812 19.4297C12.2812 18.6094 12.9492 17.9414 13.7695 17.9492C14.5117 17.9492 15.1406 18.5117 15.2383 19.25L15.2891 19.6484L15.5117 19.3086C15.5312 19.2695 16.1406 18.3594 17.2383 18.3594C17.4492 18.3594 17.6719 18.3906 17.8906 18.4609C18.7695 18.7305 18.9219 19.5312 18.9414 19.8594C18.9609 20.0508 19.0898 20.0586 19.1211 20.0586C19.1992 20.0586 19.25 20.0117 19.2891 19.9687C19.4609 19.8008 19.8203 19.5117 20.3789 19.5117C20.6406 19.5117 20.9102 19.5703 21.1992 19.6914C22.6016 20.2891 21.9609 22.0703 21.9609 22.0898C21.8398 22.3789 21.8281 22.5117 21.9492 22.5898L22 22.6211H22.0391C22.1016 22.6211 22.1797 22.5898 22.3086 22.5508C22.5 22.4805 22.7891 22.3906 23.0586 22.3906C24.1094 22.3984 24.9688 23.2617 24.9688 24.3008C24.9688 25.3516 24.1094 26.1992 23.0586 26.1992Z"
        fill="#2A3375" />
</svg>
    