<svg width="49" height="34" viewBox="0 0 49 34" fill="none" xmlns="http://www.w3.org/2000/svg">
    <path fill-rule="evenodd" clip-rule="evenodd"
        d="M24.3594 0C37.8086 0 48.7109 7.16016 48.7109 15.9297H48.6992V16.8594C48.6992 26.168 39.2617 33.7109 24.3516 33.7109C9.53125 33.7109 0 26.168 0 16.8594V15.9297C0 7.16016 10.8984 0.007813 24.3594 0ZM24.3594 30.9102C37.2891 30.9102 47.7695 24.1992 47.7695 15.9297C47.7695 7.64844 37.2813 0.949219 24.3516 0.949219C11.4219 0.949219 0.941406 7.66016 0.941406 15.9297C0.941406 24.1992 11.4297 30.9102 24.3594 30.9102Z"
        fill="white" />
    <path
        d="M16.5781 11.1992C16.5703 11.2188 16.3281 11.4688 16.4882 11.6602C16.8593 12.1289 17.9999 12.3984 19.1484 12.1406C19.8398 11.9883 20.7187 11.2813 21.5703 10.6094C22.4882 9.87891 23.4101 9.14063 24.3281 8.84766C25.3085 8.53906 25.9296 8.66797 26.3515 8.80078C26.8007 8.9375 27.3398 9.23047 28.1913 9.87109C29.789 11.0703 36.2304 16.6992 37.3515 17.668C38.2499 17.2695 42.2304 15.5508 47.6406 14.3594C47.1718 11.4688 45.4101 8.82813 42.7499 6.66797C39.039 8.23047 34.4999 9.03906 30.0703 6.87891C30.0507 6.87109 27.6484 5.73047 25.2812 5.78906C21.7617 5.87109 20.2382 7.39063 18.621 9.00781L16.5781 11.1992Z"
        fill="white" />
    <path
        d="M37.0898 18.2812C37.0117 18.2109 29.5195 11.6484 27.8203 10.3711C26.8398 9.62891 26.2891 9.4375 25.7188 9.37109C25.4219 9.32812 25.0117 9.39062 24.7188 9.46875C23.9297 9.67969 22.8984 10.3789 21.9805 11.0977C21.0312 11.8594 20.1289 12.5703 19.3008 12.7578C18.2383 13 16.9414 12.7187 16.3516 12.3203C16.1094 12.1602 15.9414 11.9688 15.8594 11.7812C15.6406 11.2695 16.0391 10.8711 16.1094 10.8008L18.1797 8.55859C18.4219 8.32031 18.6602 8.07812 18.9102 7.83984C18.2383 7.92969 17.6211 8.09766 17.0195 8.25781C16.2695 8.46875 15.5508 8.66797 14.8203 8.66797C14.5195 8.66797 12.8789 8.39844 12.5703 8.32031C10.6992 7.80859 9.05078 7.30859 6.60156 6.16016C3.66016 8.34766 1.69141 11.0898 1.12109 14.0977C1.53906 14.2109 2.21875 14.4102 2.51172 14.4805C9.17187 15.9609 11.2383 17.4883 11.6211 17.8008C12.0312 17.3477 12.6094 17.0586 13.2695 17.0586C14.0117 17.0586 14.6719 17.4297 15.0703 18C15.4492 17.6992 15.9805 17.4375 16.6602 17.4375C16.9688 17.4375 17.2891 17.5 17.6094 17.6094C18.3594 17.8711 18.75 18.3711 18.9492 18.8203C19.1992 18.7109 19.5117 18.6211 19.8789 18.6211C20.2383 18.6211 20.6094 18.6992 20.9883 18.8594C22.2188 19.3906 22.4102 20.5898 22.3008 21.5C22.3906 21.4883 22.4805 21.4883 22.5703 21.4883C24.0313 21.4883 25.2109 22.668 25.2109 24.1289C25.2109 24.5781 25.0898 25 24.8906 25.3789C25.2891 25.5977 26.3008 26.1094 27.1797 25.9883C27.8906 25.8984 28.1602 25.6602 28.25 25.5195C28.3203 25.4297 28.3906 25.3203 28.3203 25.2383L26.4414 23.1484C26.4414 23.1484 26.1289 22.8594 26.2305 22.7383C26.3398 22.6211 26.5313 22.7891 26.6602 22.8984C27.6211 23.6992 28.7812 24.8984 28.7812 24.8984C28.8008 24.9102 28.8789 25.0703 29.3086 25.1406C29.6797 25.2109 30.3398 25.168 30.7891 24.7891C30.9102 24.6992 31.0195 24.5781 31.1211 24.4609C31.1094 24.4688 31.1094 24.4687 31.1016 24.4805C31.5781 23.8711 31.0508 23.2383 31.0508 23.2383L28.8594 20.7812C28.8594 20.7812 28.5508 20.4883 28.6484 20.3711C28.75 20.2695 28.9492 20.418 29.0781 20.5391C29.7695 21.1211 30.7617 22.1094 31.6992 23.0312C31.8789 23.1602 32.7109 23.6797 33.8008 22.9609C34.4609 22.5195 34.6016 21.9883 34.5781 21.5898C34.5312 21.0586 34.1211 20.6797 34.1211 20.6797L31.1211 17.668C31.1211 17.668 30.8008 17.3984 30.9219 17.2578C31.0117 17.1406 31.2188 17.3086 31.3516 17.418C32.3008 18.2187 34.8906 20.5898 34.8906 20.5898C34.9297 20.6211 35.8203 21.25 36.9219 20.5508C37.3086 20.3008 37.5703 19.918 37.5898 19.4805C37.6289 18.7305 37.0898 18.2812 37.0898 18.2812Z"
        fill="white" />
    <path
        d="M22.5586 22.0977C22.1016 22.0898 21.5898 22.3711 21.5195 22.3281C21.4805 22.3086 21.5508 22.1211 21.5898 22.0078C21.6289 21.8984 22.25 20.0586 20.7617 19.418C19.6211 18.9297 18.9219 19.4805 18.6797 19.7305C18.6211 19.7891 18.5898 19.7891 18.5781 19.7109C18.5586 19.3789 18.4102 18.4805 17.4219 18.1797C16.0117 17.75 15.1094 18.7305 14.8789 19.0898C14.7813 18.2891 14.1016 17.6602 13.2695 17.6602C12.3711 17.6602 11.6406 18.3906 11.6289 19.2891C11.6289 20.1875 12.3594 20.918 13.2617 20.918C13.6992 20.918 14.1016 20.75 14.3906 20.4609C14.3984 20.4688 14.3984 20.4805 14.3984 20.5195C14.3281 20.918 14.1992 22.3906 15.7383 22.9883C16.3594 23.2305 16.8789 23.0508 17.3203 22.75C17.4492 22.6602 17.4687 22.6992 17.4492 22.8203C17.3906 23.1992 17.4609 24.0078 18.6016 24.4688C19.4609 24.8203 19.9687 24.4609 20.3086 24.1484C20.4609 24.0195 20.5 24.0391 20.5 24.2383C20.5391 25.3281 21.4492 26.1992 22.5508 26.1992C23.6914 26.1992 24.6094 25.2813 24.6094 24.1484C24.6094 23.0195 23.6914 22.1094 22.5586 22.0977Z"
        fill="white" />
</svg>
    