<svg width="134" height="34" viewBox="0 0 134 34" fill="none" xmlns="http://www.w3.org/2000/svg">
    <path
        d="M49.2109 16.0703C49.2109 7.30078 38.3086 0.140625 24.8594 0.140625C11.3984 0.148438 0.5 7.30078 0.5 16.0703C0.5 16.3008 0.5 16.9219 0.5 17C0.5 26.3086 10.0313 33.8516 24.8516 33.8516C39.7617 33.8516 49.1992 26.3086 49.1992 17V16.0703H49.2109Z"
        fill="#2A3375" />
    <path
        d="M48.2695 16.0703C48.2695 24.3398 37.7891 31.0508 24.8594 31.0508C11.9297 31.0508 1.44141 24.3398 1.44141 16.0703C1.44141 7.80078 11.9219 1.08984 24.8516 1.08984C37.7813 1.08984 48.2695 7.78906 48.2695 16.0703Z"
        fill="#FFD100" />
    <path
        d="M17.0781 11.3398C17.0703 11.3594 16.8281 11.6094 16.9882 11.8008C17.3593 12.2695 18.4999 12.5391 19.6484 12.2813C20.3398 12.1289 21.2187 11.4219 22.0703 10.75C22.9882 10.0195 23.9101 9.28125 24.8281 8.98828C25.8085 8.67969 26.4296 8.80859 26.8515 8.94141C27.3007 9.07813 27.8398 9.37109 28.6913 10.0117C30.289 11.2109 36.7304 16.8398 37.8515 17.8086C38.7499 17.4102 42.7304 15.6914 48.1406 14.5C47.6718 11.6094 45.9101 8.96875 43.2499 6.80859C39.539 8.37109 34.9999 9.17969 30.5703 7.01953C30.5507 7.01172 28.1484 5.87109 25.7812 5.92969C22.2617 6.01172 20.7382 7.53125 19.121 9.14844L17.0781 11.3398Z"
        fill="white" />
    <path
        d="M37.5898 18.4219C37.5117 18.3516 30.0195 11.7891 28.3203 10.5117C27.3398 9.76953 26.7891 9.57812 26.2188 9.51172C25.9219 9.46875 25.5117 9.53125 25.2188 9.60938C24.4297 9.82031 23.3984 10.5195 22.4805 11.2383C21.5312 12 20.6289 12.7109 19.8008 12.8984C18.7383 13.1406 17.4414 12.8594 16.8516 12.4609C16.6094 12.3008 16.4414 12.1094 16.3594 11.9219C16.1406 11.4102 16.5391 11.0117 16.6094 10.9414L18.6797 8.69922C18.9219 8.46094 19.1602 8.21875 19.4102 7.98047C18.7383 8.07031 18.1211 8.23828 17.5195 8.39844C16.7695 8.60938 16.0508 8.80859 15.3203 8.80859C15.0195 8.80859 13.3789 8.53906 13.0703 8.46094C11.1992 7.94922 9.55078 7.44922 7.10156 6.30078C4.16016 8.48828 2.19141 11.2305 1.62109 14.2383C2.03906 14.3516 2.71875 14.5508 3.01172 14.6211C9.67187 16.1016 11.7383 17.6289 12.1211 17.9414C12.5312 17.4883 13.1094 17.1992 13.7695 17.1992C14.5117 17.1992 15.1719 17.5703 15.5703 18.1406C15.9492 17.8398 16.4805 17.5781 17.1602 17.5781C17.4688 17.5781 17.7891 17.6406 18.1094 17.75C18.8594 18.0117 19.25 18.5117 19.4492 18.9609C19.6992 18.8516 20.0117 18.7617 20.3789 18.7617C20.7383 18.7617 21.1094 18.8398 21.4883 19C22.7188 19.5312 22.9102 20.7305 22.8008 21.6406C22.8906 21.6289 22.9805 21.6289 23.0703 21.6289C24.5313 21.6289 25.7109 22.8086 25.7109 24.2695C25.7109 24.7188 25.5898 25.1406 25.3906 25.5195C25.7891 25.7383 26.8008 26.25 27.6797 26.1289C28.3906 26.0391 28.6602 25.8008 28.75 25.6602C28.8203 25.5703 28.8906 25.4609 28.8203 25.3789L26.9414 23.2891C26.9414 23.2891 26.6289 23 26.7305 22.8789C26.8398 22.7617 27.0313 22.9297 27.1602 23.0391C28.1211 23.8398 29.2812 25.0391 29.2812 25.0391C29.3008 25.0508 29.3789 25.2109 29.8086 25.2812C30.1797 25.3516 30.8398 25.3086 31.2891 24.9297C31.4102 24.8398 31.5195 24.7188 31.6211 24.6016C31.6094 24.6094 31.6094 24.6094 31.6016 24.6211C32.0781 24.0117 31.5508 23.3789 31.5508 23.3789L29.3594 20.9219C29.3594 20.9219 29.0508 20.6289 29.1484 20.5117C29.25 20.4102 29.4492 20.5586 29.5781 20.6797C30.2695 21.2617 31.2617 22.25 32.1992 23.1719C32.3789 23.3008 33.2109 23.8203 34.3008 23.1016C34.9609 22.6602 35.1016 22.1289 35.0781 21.7305C35.0312 21.1992 34.6211 20.8203 34.6211 20.8203L31.6211 17.8086C31.6211 17.8086 31.3008 17.5391 31.4219 17.3984C31.5117 17.2812 31.7188 17.4492 31.8516 17.5586C32.8008 18.3594 35.3906 20.7305 35.3906 20.7305C35.4297 20.7617 36.3203 21.3906 37.4219 20.6914C37.8086 20.4414 38.0703 20.0586 38.0898 19.6211C38.1289 18.8711 37.5898 18.4219 37.5898 18.4219Z"
        fill="white" />
    <path
        d="M23.0586 22.2383C22.6016 22.2305 22.0898 22.5117 22.0195 22.4688C21.9805 22.4492 22.0508 22.2617 22.0898 22.1484C22.1289 22.0391 22.75 20.1992 21.2617 19.5586C20.1211 19.0703 19.4219 19.6211 19.1797 19.8711C19.1211 19.9297 19.0898 19.9297 19.0781 19.8516C19.0586 19.5195 18.9102 18.6211 17.9219 18.3203C16.5117 17.8906 15.6094 18.8711 15.3789 19.2305C15.2813 18.4297 14.6016 17.8008 13.7695 17.8008C12.8711 17.8008 12.1406 18.5312 12.1289 19.4297C12.1289 20.3281 12.8594 21.0586 13.7617 21.0586C14.1992 21.0586 14.6016 20.8906 14.8906 20.6016C14.8984 20.6094 14.8984 20.6211 14.8984 20.6602C14.8281 21.0586 14.6992 22.5313 16.2383 23.1289C16.8594 23.3711 17.3789 23.1914 17.8203 22.8906C17.9492 22.8008 17.9687 22.8398 17.9492 22.9609C17.8906 23.3398 17.9609 24.1484 19.1016 24.6094C19.9609 24.9609 20.4687 24.6016 20.8086 24.2891C20.9609 24.1602 21 24.1797 21 24.3789C21.0391 25.4688 21.9492 26.3398 23.0508 26.3398C24.1914 26.3398 25.1094 25.4219 25.1094 24.2891C25.1094 23.1602 24.1914 22.25 23.0586 22.2383Z"
        fill="white" />
    <path
        d="M37.8789 17.6289C35.5703 15.6094 30.2305 10.9688 28.7812 9.89062C27.9492 9.26953 27.3906 8.94141 26.8984 8.78906C26.6797 8.71875 26.3711 8.64844 25.9688 8.64844C25.6016 8.64844 25.2109 8.71875 24.7891 8.85156C23.8594 9.14844 22.9219 9.89062 22.0195 10.6016L21.9688 10.6406C21.1289 11.3086 20.2617 12 19.6094 12.1406C19.3203 12.1992 19.0313 12.2383 18.7383 12.2383C18.0117 12.2383 17.3398 12.0313 17.1016 11.7109C17.0586 11.6602 17.0898 11.5703 17.1797 11.4492L17.1914 11.4297L19.2188 9.23828C20.8086 7.64844 22.3086 6.14844 25.7812 6.07031C25.8398 6.07031 25.8984 6.07031 25.9492 6.07031C28.1016 6.07031 30.2617 7.03906 30.5 7.14844C32.5195 8.14063 34.6016 8.64062 36.6992 8.64062C38.8789 8.64062 41.1406 8.10156 43.5117 7.01172C43.25 6.78906 42.9688 6.57031 42.6914 6.35938C40.6094 7.26172 38.6289 7.71875 36.7109 7.71875C34.7617 7.71875 32.8008 7.25 30.9102 6.32031C30.8086 6.26953 28.4297 5.14844 25.9609 5.14844C25.8984 5.14844 25.8281 5.14844 25.7617 5.14844C22.8516 5.21875 21.2188 6.25 20.1094 7.14844C19.0391 7.17969 18.1211 7.42969 17.2891 7.66016C16.5586 7.85938 15.9219 8.03906 15.3086 8.03906C15.0586 8.03906 14.6016 8.01953 14.5586 8.01953C13.8516 8 10.2695 7.12109 7.42188 6.03906C7.12891 6.25 6.85156 6.46094 6.57812 6.67188C9.55078 7.89062 13.1719 8.82813 14.3203 8.91016C14.6406 8.92969 14.9805 8.96875 15.3203 8.96875C16.0781 8.96875 16.8281 8.76172 17.5586 8.55078C17.9883 8.42969 18.4688 8.30078 18.9688 8.19922C18.8398 8.32812 18.6992 8.46094 18.5703 8.60156L16.5117 10.8281C16.3516 10.9883 15.9883 11.4297 16.2305 11.9688C16.3203 12.1914 16.5117 12.3984 16.7695 12.5703C17.2617 12.8984 18.1406 13.1289 18.9609 13.1289C19.2695 13.1289 19.5586 13.1016 19.8281 13.0391C20.6992 12.8516 21.6016 12.1211 22.5586 11.3594C23.3281 10.75 24.4219 9.98047 25.25 9.75C25.4805 9.69141 25.7695 9.64844 26 9.64844C26.0703 9.64844 26.1289 9.64844 26.1914 9.66016C26.7383 9.73047 27.2695 9.92188 28.2188 10.6289C29.9102 11.8984 37.4219 18.4609 37.4883 18.5312C37.4883 18.5312 37.9688 18.9492 37.9414 19.6289C37.9219 20.0117 37.7109 20.3516 37.3398 20.5898C37.0195 20.7891 36.6914 20.8984 36.3594 20.8984C35.8594 20.8984 35.5117 20.6602 35.4883 20.6484C35.4609 20.6289 32.8906 18.2695 31.9492 17.4805C31.8008 17.3594 31.6484 17.2383 31.5117 17.2383C31.4297 17.2383 31.3594 17.2695 31.3086 17.3281C31.1602 17.5117 31.3281 17.7695 31.5195 17.9297L34.5195 20.9492C34.5195 20.9492 34.8906 21.3008 34.9297 21.7617C34.9492 22.2617 34.7109 22.6797 34.2188 23C33.8711 23.2305 33.5117 23.3516 33.1602 23.3516C32.6992 23.3516 32.3789 23.1406 32.3008 23.0898L31.8711 22.6719C31.0781 21.8984 30.2695 21.0898 29.6797 20.6016C29.5391 20.4805 29.3789 20.3711 29.2305 20.3711C29.1602 20.3711 29.0898 20.3984 29.0391 20.4492C28.9688 20.5312 28.9219 20.6602 29.0898 20.8906C29.1602 20.9805 29.2383 21.0586 29.2383 21.0586L31.4297 23.5195C31.4492 23.5391 31.8789 24.0586 31.4805 24.5703L31.3984 24.6719C31.3281 24.7383 31.2617 24.8086 31.1992 24.8711C30.8281 25.1797 30.3281 25.2109 30.1289 25.2109C30.0195 25.2109 29.9219 25.1992 29.8281 25.1797C29.6094 25.1406 29.4687 25.0781 29.3984 25L29.3711 24.9688C29.25 24.8516 28.1484 23.7188 27.2305 22.9609C27.1094 22.8594 26.9609 22.7305 26.8008 22.7305C26.7188 22.7305 26.6602 22.7617 26.6016 22.8203C26.4219 23.0195 26.6914 23.3086 26.8086 23.4219L28.6797 25.4805C28.6797 25.5 28.6484 25.5391 28.6094 25.6094C28.5391 25.6992 28.3203 25.9297 27.6406 26.0117C27.5586 26.0195 27.4688 26.0313 27.3906 26.0313C26.6914 26.0313 25.9492 25.6914 25.5586 25.4883C25.7305 25.1211 25.8281 24.7109 25.8281 24.3086C25.8281 22.7695 24.5781 21.5195 23.0391 21.5195C23.0117 21.5195 22.9688 21.5195 22.9414 21.5195C22.9883 20.8203 22.8906 19.4883 21.5312 18.8984C21.1406 18.7305 20.75 18.6406 20.3594 18.6406C20.0586 18.6406 19.7812 18.6914 19.5117 18.7891C19.2305 18.2383 18.7617 17.8398 18.1484 17.6289C17.8086 17.5117 17.4805 17.4492 17.1484 17.4492C16.5781 17.4492 16.0586 17.6211 15.5898 17.9492C15.1406 17.3906 14.4687 17.0586 13.7617 17.0586C13.1406 17.0586 12.5391 17.3086 12.1016 17.75C11.5195 17.3086 9.21094 15.8398 3.03906 14.4414C2.73828 14.3711 2.05078 14.1797 1.62891 14.0508C1.55859 14.3789 1.51172 14.7187 1.46875 15.0586C1.46875 15.0586 2.60938 15.3281 2.82812 15.3789C9.14062 16.7813 11.2187 18.2383 11.5703 18.5117C11.4492 18.8008 11.3906 19.1094 11.3906 19.4219C11.3906 20.7188 12.4492 21.7813 13.75 21.7813C13.8984 21.7813 14.0391 21.7695 14.1797 21.7383C14.3789 22.6992 15 23.4297 15.9609 23.8008C16.2383 23.9102 16.5195 23.9609 16.8008 23.9609C16.9805 23.9609 17.1602 23.9414 17.3398 23.8906C17.5195 24.3398 17.9219 24.8984 18.8086 25.2617C19.1211 25.3906 19.4297 25.4492 19.7383 25.4492C19.9883 25.4492 20.2305 25.4102 20.4609 25.3203C20.8906 26.3594 21.8984 27.0508 23.0391 27.0508C23.7891 27.0508 24.5117 26.75 25.0391 26.1992C25.4883 26.4492 26.4414 26.8984 27.3984 26.8984C27.5195 26.8984 27.6406 26.8906 27.7617 26.8789C28.7109 26.7617 29.1602 26.3906 29.3594 26.1016C29.3984 26.0508 29.4297 26 29.4609 25.9414C29.6797 26 29.9297 26.0586 30.2188 26.0586C30.7383 26.0586 31.2383 25.8789 31.75 25.5117C32.25 25.1484 32.6016 24.6406 32.6484 24.1992C32.6484 24.1914 32.6484 24.1914 32.6484 24.1797C32.8203 24.2109 32.9883 24.2305 33.1602 24.2305C33.6992 24.2305 34.2187 24.0586 34.7305 23.7305C35.6992 23.0898 35.8711 22.2617 35.8516 21.7188C36.0195 21.7617 36.1914 21.7695 36.3711 21.7695C36.8711 21.7695 37.3711 21.6211 37.8398 21.3203C38.4414 20.9414 38.8008 20.3516 38.8594 19.6602C38.8984 19.1914 38.7813 18.7188 38.5391 18.3203C40.1719 17.6211 43.8906 16.2617 48.2695 15.2695C48.2383 14.9297 48.1914 14.5898 48.1289 14.2617C42.8203 15.4805 38.8711 17.1914 37.8789 17.6289ZM23.0586 26.1992C22.0312 26.1992 21.1914 25.3984 21.1602 24.3789C21.1602 24.2891 21.1484 24.0586 20.9492 24.0586C20.8711 24.0586 20.8008 24.1094 20.7188 24.1797C20.4883 24.3906 20.2109 24.6016 19.7812 24.6016C19.5898 24.6016 19.3789 24.5586 19.1602 24.4688C18.0703 24.0313 18.0586 23.2813 18.1016 22.9805C18.1094 22.8984 18.1211 22.8203 18.0586 22.75L18 22.6992H17.9297C17.8711 22.6992 17.8203 22.7188 17.7383 22.7813C17.4297 23 17.1211 23.1094 16.8203 23.1094C16.6484 23.1094 16.4805 23.0781 16.3008 23.0117C14.8711 22.4492 14.9805 21.1016 15.0508 20.6992C15.0586 20.6211 15.0391 20.5508 14.9883 20.5117L14.8906 20.4297L14.8008 20.5C14.5195 20.7695 14.1602 20.9219 13.7695 20.9219C12.9492 20.9219 12.2812 20.25 12.2812 19.4297C12.2812 18.6094 12.9492 17.9414 13.7695 17.9492C14.5117 17.9492 15.1406 18.5117 15.2383 19.25L15.2891 19.6484L15.5117 19.3086C15.5312 19.2695 16.1406 18.3594 17.2383 18.3594C17.4492 18.3594 17.6719 18.3906 17.8906 18.4609C18.7695 18.7305 18.9219 19.5312 18.9414 19.8594C18.9609 20.0508 19.0898 20.0586 19.1211 20.0586C19.1992 20.0586 19.25 20.0117 19.2891 19.9688C19.4609 19.8008 19.8203 19.5117 20.3789 19.5117C20.6406 19.5117 20.9102 19.5703 21.1992 19.6914C22.6016 20.2891 21.9609 22.0703 21.9609 22.0898C21.8398 22.3789 21.8281 22.5117 21.9492 22.5898L22 22.6211H22.0391C22.1016 22.6211 22.1797 22.5898 22.3086 22.5508C22.5 22.4805 22.7891 22.3906 23.0586 22.3906C24.1094 22.3984 24.9688 23.2617 24.9688 24.3008C24.9688 25.3516 24.1094 26.1992 23.0586 26.1992Z"
        fill="#2A3375" />
    <path
        d="M132.18 5.92969C131.301 4.82813 129.969 4.28125 128.18 4.28125C126.391 4.28125 125.059 4.82813 124.18 5.92969C123.301 7.03125 122.859 8.32812 122.859 9.82812C122.859 11.3594 123.301 12.6602 124.18 13.75C125.059 14.8281 126.391 15.3789 128.18 15.3789C129.969 15.3789 131.301 14.8398 132.18 13.75C133.059 12.6602 133.5 11.3594 133.5 9.82812C133.5 8.32812 133.059 7.03125 132.18 5.92969ZM130 12.2383C129.57 12.8086 128.961 13.0898 128.172 13.0898C127.371 13.0898 126.762 12.8086 126.328 12.2383C125.898 11.6719 125.691 10.8711 125.691 9.82812C125.691 8.78906 125.898 7.98047 126.328 7.42188C126.762 6.85938 127.371 6.57812 128.172 6.57812C128.969 6.57812 129.578 6.85938 130 7.42188C130.43 7.98047 130.641 8.78906 130.641 9.82812C130.641 10.8711 130.43 11.6797 130 12.2383Z"
        fill="#2A3375" />
    <path
        d="M109.719 5C108.828 4.55078 107.809 4.32031 106.66 4.32031C104.898 4.32031 103.648 4.78125 102.922 5.69922C102.461 6.28906 102.211 7.03906 102.148 7.94922H104.789C104.852 7.55078 104.98 7.23047 105.18 6.98828C105.449 6.67188 105.91 6.51172 106.57 6.51172C107.148 6.51172 107.602 6.58984 107.898 6.76172C108.199 6.92187 108.352 7.21875 108.352 7.64844C108.352 8 108.148 8.26172 107.762 8.42969C107.539 8.53125 107.18 8.60938 106.672 8.67188L105.738 8.78906C104.68 8.92187 103.871 9.14844 103.328 9.46094C102.328 10.0391 101.828 10.9609 101.828 12.25C101.828 13.2383 102.141 14.0117 102.762 14.5391C103.379 15.0781 104.172 15.3086 105.121 15.3516C111.078 15.6211 111.02 12.2109 111.07 11.5V7.57812C111.059 6.32031 110.609 5.46094 109.719 5ZM108.328 10.9609C108.309 11.8711 108.051 12.5 107.551 12.8516C107.051 13.1992 106.5 13.3711 105.898 13.3711C105.52 13.3711 105.199 13.2695 104.941 13.0586C104.68 12.8516 104.551 12.5117 104.551 12.0508C104.551 11.5313 104.762 11.1406 105.191 10.8906C105.449 10.7383 105.859 10.6211 106.449 10.5195L107.07 10.3984C107.379 10.3398 107.621 10.2813 107.801 10.2109C107.98 10.1406 108.148 10.0586 108.328 9.94922V10.9609Z"
        fill="#2A3375" />
    <path
        d="M96.1211 6.66016C96.8008 6.66016 97.3008 6.87109 97.6289 7.28906C97.8516 7.60156 97.9883 7.94922 98.0391 8.33984H100.98C100.82 6.85937 100.301 5.82031 99.4219 5.23047C98.5391 4.64844 97.4102 4.35156 96.0391 4.35156C94.4219 4.35156 93.1484 4.85156 92.2305 5.83984C91.3086 6.82812 90.8516 8.21875 90.8516 10.0117C90.8516 11.5898 91.2695 12.8789 92.1016 13.8789C92.9297 14.8711 94.2305 15.3711 96 15.3711C97.7695 15.3711 99.1016 14.7695 100 13.5781C100.559 12.8398 100.879 12.0586 100.949 11.2305H98.0195C97.9609 11.7812 97.7891 12.2188 97.5117 12.5703C97.2305 12.9102 96.75 13.0898 96.0781 13.0898C95.1289 13.0898 94.4805 12.6602 94.1406 11.7891C93.9492 11.3281 93.8594 10.7109 93.8594 9.94922C93.8594 9.14844 93.9609 8.51172 94.1406 8.01953C94.4883 7.12109 95.1484 6.66016 96.1211 6.66016Z"
        fill="#2A3375" />
    <path
        d="M90.0588 4.35938C84.0197 4.35938 84.3791 9.71094 84.3791 9.71094V15.1406H87.1213V10.0391C87.1213 9.21094 87.2306 8.58984 87.4298 8.17969C87.8088 7.46875 88.5392 7.10938 89.6408 7.10938C89.7189 7.10938 89.8283 7.10937 89.9689 7.12109C90.1017 7.12891 90.2502 7.14063 90.4298 7.16016V4.37891C90.3088 4.37109 90.2306 4.37109 90.1994 4.35938C90.1603 4.35938 90.1095 4.35938 90.0588 4.35938Z"
        fill="#2A3375" />
    <path
        d="M79.9883 12.3008C79.8711 12.4609 79.75 12.6016 79.6094 12.7109C79.2188 13.0312 78.6992 13.1289 78.0781 13.1289C77.4883 13.1289 77.0391 13.0391 76.6211 12.7812C75.9414 12.3594 75.5508 11.6484 75.5117 10.6016H83.1016C83.1094 9.69922 83.0781 9.01172 83.0117 8.53125C82.8789 7.71094 82.6094 7 82.1797 6.37891C81.7109 5.67969 81.1094 5.16016 80.3789 4.83984C79.6484 4.51953 78.8398 4.35156 77.9297 4.35156C76.3984 4.35156 75.1602 4.82812 74.2109 5.78906C73.25 6.75 72.7695 8.14063 72.7695 9.94141C72.7695 11.8711 73.3008 13.2617 74.3594 14.1094C75.4219 14.9609 76.6406 15.3906 78.0312 15.3906C79.7109 15.3906 81.0195 14.8789 81.9492 13.8711C82.4492 13.3398 82.7695 12.8086 82.8984 12.2891H79.9883V12.3008ZM76.3086 7.19922C76.6992 6.80078 77.2383 6.60938 77.9414 6.60938C78.5781 6.60938 79.1211 6.80078 79.5586 7.17188C79.9883 7.53906 80.2383 8.08984 80.2812 8.80859H75.5898C75.6797 8.12891 75.9219 7.58984 76.3086 7.19922Z"
        fill="#2A3375" />
    <path
        d="M71.6719 15.1406H69.1719V8.82812C69.1719 8.25 68.9805 6.87891 67.3281 6.87891C66.2305 6.87891 65.4297 7.67188 65.4297 8.82812V15.1406H62.9219V8.82812C62.9219 8.25 62.75 6.87891 61.1016 6.87891C59.9805 6.87891 59.1992 7.67188 59.1992 8.82812V15.1406H56.6914V8.89062C56.6914 6.28906 58.4219 4.32031 61.0898 4.32031C62.4219 4.32031 63.5 4.87891 64.1992 5.76953C64.9414 4.87891 66.0391 4.32031 67.3086 4.32031C70.0391 4.32031 71.6602 6.21094 71.6602 8.89062V15.1406H71.6719Z"
        fill="#2A3375" />
    <path
        d="M122.039 1.07031C122.039 1.07031 119.281 0.78125 119.281 2.98828V5.92969C118.969 5.44141 118.578 5.05859 118.09 4.78125C117.602 4.5 117.039 4.35938 116.41 4.35938C115.039 4.35938 113.949 4.87109 113.129 5.89063C112.309 6.91016 111.898 8.37891 111.898 10.1602C111.898 11.6992 112.32 12.9687 113.148 13.9492C113.98 14.9297 115.609 15.3594 117.059 15.3594C122.109 15.3594 122.051 11.0312 122.051 11.0312L122.039 1.07031ZM118.75 12.2695C118.352 12.8398 117.762 13.1289 116.988 13.1289C116.219 13.1289 115.641 12.8398 115.27 12.2617C114.891 11.6797 114.699 10.8398 114.699 9.87891C114.699 8.98828 114.891 8.23828 115.262 7.64063C115.629 7.03906 116.219 6.73828 117.012 6.73828C117.531 6.73828 117.988 6.91016 118.391 7.23828C119.031 7.78906 119.352 8.76953 119.352 10.0391C119.359 10.9492 119.148 11.6914 118.75 12.2695Z"
        fill="#2A3375" />
    <path
        d="M90.6211 28.2383C90.5117 28.3984 90.3789 28.5391 90.25 28.6484C89.8594 28.9687 89.3203 29.0781 88.7109 29.0781C88.1289 29.0781 87.6797 28.9883 87.2617 28.7305C86.5781 28.3086 86.2187 27.5898 86.1797 26.5508H93.6992C93.7109 25.6602 93.6797 24.9805 93.6094 24.5C93.4805 23.6914 93.2109 22.9805 92.7891 22.3594C92.3203 21.6602 91.7187 21.1602 91.0117 20.8281C90.2891 20.5117 89.4805 20.3516 88.5781 20.3516C87.0703 20.3516 85.8398 20.8281 84.8906 21.7812C83.9414 22.7383 83.4688 24.1094 83.4688 25.8906C83.4688 27.8008 83.9883 29.1797 85.0508 30.0195C86.1016 30.8711 87.3086 31.2891 88.6914 31.2891C90.3516 31.2891 91.6484 30.7891 92.5703 29.7812C93.0703 29.25 93.3789 28.7305 93.5117 28.2109H90.6211V28.2383ZM86.9688 23.1797C87.3516 22.7891 87.8906 22.5898 88.5781 22.5898C89.2188 22.5898 89.75 22.7812 90.1797 23.1484C90.6094 23.5195 90.8516 24.0586 90.8984 24.7812H86.25C86.3516 24.1094 86.5898 23.5781 86.9688 23.1797Z"
        fill="#2A3375" />
    <path
        d="M71.7813 20.3906C71.1485 20.3906 70.5899 20.5313 70.1016 20.8008C69.6094 21.0781 69.211 21.4609 68.9102 21.9492V17.0195C68.9102 17.0195 66.1485 16.75 66.1485 18.9883V26.9805C66.1485 26.9805 66.0899 31.3086 71.1407 31.3086C72.5899 31.3086 74.2188 30.8789 75.0508 29.8906C75.8789 28.9102 76.3008 27.6406 76.3008 26.1016C76.3008 24.3203 75.8907 22.9297 75.0703 21.9102C74.2383 20.8984 73.1485 20.3906 71.7813 20.3906ZM72.9102 28.2188C72.5313 28.8008 71.961 29.0781 71.1914 29.0781C70.4219 29.0781 69.8282 28.8008 69.4297 28.2188C69.0313 27.6484 68.8282 26.9102 68.8282 25.9883C68.8282 24.7188 69.1485 23.8086 69.7891 23.2617C70.1914 22.9297 70.6407 22.7617 71.1719 22.7617C71.9688 22.7617 72.5508 23.0586 72.9219 23.6602C73.2891 24.2617 73.4805 25.0117 73.4805 25.8984C73.4805 26.8711 73.2891 27.6406 72.9102 28.2188Z"
        fill="#2A3375" />
    <path
        d="M82.9413 20.3789C82.8984 20.3789 82.8593 20.3789 82.8085 20.3789C76.7694 20.3789 77.121 25.7305 77.121 25.7305V31.0781H79.8593V26.0703C79.8593 25.2305 79.9609 24.6211 80.1796 24.2188C80.5507 23.5117 81.289 23.1484 82.3905 23.1484C82.4687 23.1484 82.578 23.1484 82.7109 23.1602C82.8398 23.1719 82.9999 23.1797 83.1718 23.1992V20.4102C83.0585 20.3789 82.9804 20.3789 82.9413 20.3789Z"
        fill="#2A3375" />
    <path
        d="M56.6914 18.9883V31.0586H59.2617V17.0195C59.2695 17.0195 56.6914 16.9102 56.6914 18.9883Z"
        fill="#2A3375" />
    <path d="M61.3711 17H64.1211V19.7305H61.3711V17Z" fill="#2A3375" />
    <path d="M61.3711 20.6602H64.1289V31.0703H61.3711V20.6602Z" fill="#2A3375" />
</svg>
    