<svg width="280" height="31" viewBox="0 0 280 31" fill="none" xmlns="http://www.w3.org/2000/svg">
	<g clip-path="url(#clip0_10_301)">
		<path
			d="M7.9 21.2H12.6C14.9 21.2 16.8 20.7 18.6 19.9C20.4 19.1 21.7 17.8 22.6 16.2C23.6 14.6 24.1 12.8 24.1 10.7C24.1 8.60001 23.6 6.80001 22.6 5.20001C21.6 3.60001 20.3 2.40001 18.6 1.50001C16.8 0.700012 14.9 0.200012 12.6 0.200012H0V30.5H7.9V21.2ZM7.9 6.80001H11.9C13.2 6.80001 14.2 7.10001 15 7.90001C15.8 8.50001 16.1 9.50001 16.1 10.8C16.1 12.1 15.6 12.9 15 13.6C14.4 14.2 13.2 14.7 11.9 14.7H7.9V6.80001Z"
			fill="black" />
		<path
			d="M50.8 15.7C51.6 14.2 52.1 12.6 52.1 10.8C52.1 8.69999 51.6 6.89999 50.6 5.29999C49.6 3.69999 48.2 2.49999 46.6 1.59999C44.8 0.799988 42.9 0.299988 40.4 0.299988H27.5V30.6H35.6V21.2H39.8L44.3 30.6H53L47.5 19.3C48.9 18.3 50 17.2 50.8 15.7ZM42.7 13.6C41.9 14.2 40.9 14.7 39.6 14.7H35.6V6.79999H39.8C41.1 6.79999 42.1 7.09999 42.9 7.89999C43.7 8.49999 44 9.49999 44 10.8C44 12.1 43.5 12.9 42.7 13.6Z"
			fill="black" />
		<path
			d="M64.7008 18.5H75.1008V12.1H64.7008V6.99999H77.7008V0.299988H56.8008V30.4H78.2008V23.8H64.7008V18.5Z"
			fill="black" />
		<path
			d="M104.6 25.9C105.7 24.4 106.2 22.7 106.2 20.9C106.2 19 105.7 17.5 104.9 16.2C104.1 15.1 103 14.1 101.7 13.6C100.4 13 98.8004 12.5 96.7004 12.1C94.6004 11.6 93.1004 11.3 92.3004 11.1C91.3004 10.8 90.7004 10.6 90.4004 10.3C89.9004 10 89.8004 9.5 89.8004 8.8C89.8004 7.8 90.1004 7.2 90.9004 6.7C91.5004 6.2 92.5004 6.1 93.7004 6.1C95.0004 6.1 96.0004 6.4 96.8004 7.1C97.6004 7.7 97.9004 8.6 98.1004 9.7H105.9C105.9 7.9 105.4 6.3 104.3 4.7C103.3 3.2 101.9 2.1 99.9004 1.3C98.0004 0.5 95.9004 0 93.6004 0C91.3004 0 89.4004 0.5 87.6004 1.3C85.8004 2.1 84.4004 3.2 83.4004 4.7C82.4004 6.2 81.9004 7.8 81.9004 9.6C81.9004 11.5 82.4004 13.2 83.2004 14.5C84.0004 15.6 85.1004 16.6 86.4004 17.3C87.7004 17.9 89.5004 18.4 91.4004 18.8C93.5004 19.3 95.0004 19.6 95.9004 19.8C96.9004 20.1 97.5004 20.3 97.8004 20.6C98.3004 20.9 98.4004 21.4 98.4004 22.1C98.4004 23.1 98.1004 23.7 97.3004 24.2C96.5004 24.7 95.5004 25 94.2004 25C92.6004 25 91.3004 24.7 90.5004 23.9C89.5004 23.1 89.0004 22.3 89.0004 21L80.9004 20.8C80.9004 22.7 81.4004 24.5 82.5004 26C83.6004 27.6 85.1004 28.8 87.2004 29.7C89.1004 30.7 91.4004 31 93.8004 31C96.1004 31 98.2004 30.5 100.1 29.7C102.1 28.6 103.6 27.4 104.6 25.9Z"
			fill="black" />
		<path d="M132.201 0.299988H107.801V6.99999H116.001V30.4H124.001V6.99999H132.201V0.299988Z"
			fill="black" />
		<path
			d="M140.3 0.299988L129.5 30.6H137.8L139.6 24.9H150L151.9 30.6H160.5L150 0.299988H140.3ZM141.8 18.5L145 8.59999L148.2 18.5H141.8Z"
			fill="black" />
		<path
			d="M185.2 25.9C186.3 24.4 186.8 22.7 186.8 20.9C186.8 19 186.3 17.5 185.5 16.2C184.7 15.1 183.6 14.1 182.3 13.6C181 13.1 179.2 12.5 177.1 12.1C175.2 11.8 173.7 11.5 172.7 11.1C171.7 10.7 171.1 10.6 170.8 10.3C170.3 10 170.2 9.5 170.2 8.8C170.2 7.8 170.5 7.2 171.3 6.7C171.9 6.2 172.9 6.1 174.1 6.1C175.4 6.1 176.4 6.4 177.2 7.1C178 7.8 178.3 8.6 178.5 9.7H186.3C186.3 7.9 185.8 6.3 184.7 4.7C183.7 3.2 182.3 2.1 180.3 1.3C178.4 0.5 176.3 0 174 0C171.7 0 169.8 0.5 168 1.3C166.2 2.1 164.8 3.2 163.8 4.7C162.8 6.2 162.3 7.8 162.3 9.6C162.3 11.5 162.8 13.2 163.6 14.5C164.4 15.6 165.5 16.6 166.8 17.3C168.1 18 169.9 18.4 171.8 18.8C173.9 19.3 175.4 19.6 176.3 19.8C177.3 20.1 177.9 20.3 178.2 20.6C178.7 20.9 178.8 21.4 178.8 22.1C178.8 23.1 178.5 23.7 177.7 24.2C176.9 24.7 175.9 25 174.6 25C173 25 171.7 24.7 170.9 23.9C169.9 23.1 169.4 22.3 169.4 21L161.6 20.8C161.6 22.7 162.1 24.5 163.2 26C164.3 27.6 165.8 28.8 167.9 29.7C170 30.7 172.1 31 174.5 31C176.9 31 178.9 30.5 180.8 29.7C182.6 28.6 184 27.4 185.2 25.9Z"
			fill="black" />
		<path
			d="M208.9 11.8H198.9V0.299988H191V30.4H198.9V18.6H208.9V30.4H216.9V0.299988H208.9V11.8Z"
			fill="black" />
		<path
			d="M249.699 23.3C250.999 21 251.599 18.3 251.599 15.4C251.599 12.5 250.999 9.89998 249.699 7.49998C248.399 5.19998 246.599 3.29998 244.399 1.99998C241.999 0.699976 239.399 0.0999756 236.299 0.0999756C233.199 0.0999756 230.599 0.699976 228.399 1.99998C226.099 3.29998 224.399 5.19998 223.099 7.49998C221.799 9.79998 221.199 12.5 221.199 15.4C221.199 18.3 221.799 20.9 223.099 23.3C224.399 25.6 226.199 27.5 228.399 28.8C230.599 30.1 233.399 30.7 236.299 30.7C239.399 30.7 241.999 30.1 244.199 28.8C246.699 27.4 248.399 25.6 249.699 23.3ZM241.599 21.7C240.299 23.3 238.499 24.1 236.399 24.1C234.299 24.1 232.499 23.3 231.199 21.7C229.899 20.1 229.299 18 229.299 15.4C229.299 12.8 229.899 10.7 231.199 9.09998C232.499 7.49998 234.299 6.69998 236.399 6.69998C238.499 6.69998 240.299 7.49998 241.599 9.09998C242.899 10.7 243.499 12.8 243.499 15.4C243.499 18 242.899 20.1 241.599 21.7Z"
			fill="black" />
		<path
			d="M274.499 1.59999C272.699 0.799988 270.799 0.299988 268.499 0.299988H255.699V30.6H263.599V21.2H268.299C270.599 21.2 272.499 20.7 274.299 19.9C276.099 19.1 277.399 17.8 278.299 16.2C279.199 14.6 279.799 12.8 279.799 10.7C279.799 8.59999 279.299 6.79999 278.299 5.19999C277.399 3.59999 276.299 2.39999 274.499 1.59999ZM270.799 13.6C269.999 14.2 268.999 14.7 267.699 14.7H263.799V6.79999H267.799C269.099 6.79999 270.099 7.09999 270.899 7.89999C271.699 8.49999 271.999 9.49999 271.999 10.8C271.999 12.1 271.599 12.9 270.799 13.6Z"
			fill="black" />
	</g>
	<defs>
		<clipPath id="clip0_10_301">
			<rect width="279.8" height="30.8" fill="white" />
		</clipPath>
	</defs>
</svg>
	