<svg width="500" height="143" viewBox="0 0 500 143" fill="none" xmlns="http://www.w3.org/2000/svg">
    <g clip-path="url(#clip0_13_398)">
        <path
            d="M107.4 27.1001C107.3 26.4001 106.7 26.0001 106.2 26.0001C105.7 26.0001 95.8 25.8001 95.8 25.8001C95.8 25.8001 87.5 17.8001 86.7 16.9001C85.9 16.1001 84.3 16.3001 83.7 16.5001C83.7 16.5001 82.1 17.0001 79.5 17.8001C79.1 16.4001 78.4 14.7001 77.5 12.9001C74.6 7.30006 70.2 4.30006 65 4.30006C64.6 4.30006 64.3 4.30006 63.9 4.40006C63.7 4.20006 63.6 4.00006 63.4 3.90006C61.1 1.50006 58.2 0.300062 54.7 0.400062C48 0.600062 41.3 5.50006 35.8 14.1001C32 20.2001 29.1 27.8001 28.2 33.7001C20.5 36.1001 15.1 37.8001 14.9 37.8001C11 39.0001 10.9 39.1001 10.4 42.8001C10.2 45.6001 0 124.5 0 124.5L85.6 139.3L122.7 130.1C122.6 130.1 107.5 27.8001 107.4 27.1001ZM75.2 19.2001C73.2 19.8001 71 20.5001 68.6 21.3001C68.6 17.9001 68.1 13.1001 66.6 9.10006C71.7 9.90006 74.2 15.7001 75.2 19.2001ZM64.1 22.6001C59.6 24.0001 54.7 25.5001 49.8 27.0001C51.2 21.7001 53.8 16.5001 57 13.0001C58.2 11.7001 59.9 10.3001 61.8 9.50006C63.8 13.4001 64.2 18.9001 64.1 22.6001ZM54.9 4.90006C56.5 4.90006 57.8 5.20006 58.9 6.00006C57.1 6.90006 55.3 8.30006 53.7 10.1001C49.4 14.7001 46.1 21.8001 44.8 28.7001C40.7 30.0001 36.7 31.2001 33.1 32.3001C35.5 21.4001 44.6 5.20006 54.9 4.90006Z"
            fill="#95BF47" />
        <path
            d="M106.2 26.0001C105.7 26.0001 95.8001 25.8001 95.8001 25.8001C95.8001 25.8001 87.5001 17.8001 86.7001 16.9001C86.4001 16.6001 86.0001 16.4001 85.6001 16.4001V139.3L122.7 130.1C122.7 130.1 107.6 27.8001 107.5 27.1001C107.3 26.4001 106.7 26.0001 106.2 26.0001Z"
            fill="#5E8E3E" />
        <path
            d="M65 45.1L60.7001 61.2C60.7001 61.2 55.9001 59 50.2001 59.4C41.8001 59.9 41.8 65.2 41.8 66.5C42.3 73.7 61.2 75.3 62.3 92.2C63.1 105.5 55.3001 114.6 43.9001 115.3C30.3001 116 22.8 108 22.8 108L25.7001 95.7C25.7001 95.7 33.3 101.4 39.3 101C43.2 100.8 44.7 97.5 44.5 95.3C43.9 85.9 28.5 86.5 27.5 71C26.7 58 35.2001 44.9 54 43.7C61.3 43.2 65 45.1 65 45.1Z"
            fill="white" />
        <path
            d="M172.9 79.4001C168.6 77.1001 166.4 75.1001 166.4 72.4001C166.4 69.0001 169.5 66.8001 174.3 66.8001C179.9 66.8001 184.9 69.1 184.9 69.1L188.8 57.1C188.8 57.1 185.2 54.3 174.6 54.3C159.8 54.3 149.5 62.8 149.5 74.7C149.5 81.5 154.3 86.6001 160.7 90.3001C165.9 93.2001 167.7 95.3001 167.7 98.4001C167.7 101.6 165.1 104.2 160.3 104.2C153.2 104.2 146.4 100.5 146.4 100.5L142.2 112.5C142.2 112.5 148.4 116.7 158.9 116.7C174.1 116.7 185.1 109.2 185.1 95.7C185 88.4 179.5 83.2001 172.9 79.4001Z"
            fill="white" />
        <path
            d="M233.5 54.1C226 54.1 220.1 57.7 215.6 63.1L215.4 63L221.9 29H205L188.5 115.6H205.4L211 86C213.2 74.8 219 67.9 224.4 67.9C228.2 67.9 229.7 70.5 229.7 74.2C229.7 76.5 229.5 79.4 229 81.7L222.6 115.6H239.5L246.1 80.6C246.8 76.9 247.3 72.5 247.3 69.5C247.4 59.9 242.4 54.1 233.5 54.1Z"
            fill="white" />
        <path
            d="M285.7 54.1001C265.3 54.1001 251.8 72.5001 251.8 93.0001C251.8 106.1 259.9 116.7 275.1 116.7C295.1 116.7 308.6 98.8001 308.6 77.8001C308.7 65.7001 301.6 54.1001 285.7 54.1001ZM277.4 103.8C271.6 103.8 269.2 98.9001 269.2 92.7001C269.2 83.0001 274.2 67.2001 283.4 67.2001C289.4 67.2001 291.4 72.4001 291.4 77.4001C291.4 87.8001 286.3 103.8 277.4 103.8Z"
            fill="white" />
        <path
            d="M352 54.1001C340.6 54.1001 334.1 64.2001 334.1 64.2001H333.9L334.9 55.1001H319.9C319.2 61.2001 317.8 70.6001 316.5 77.6001L304.7 139.6H321.6L326.3 114.5H326.7C326.7 114.5 330.2 116.7 336.6 116.7C356.5 116.7 369.5 96.3001 369.5 75.7001C369.5 64.3001 364.4 54.1001 352 54.1001ZM335.8 104C331.4 104 328.8 101.5 328.8 101.5L331.6 85.7001C333.6 75.1001 339.1 68.1001 345 68.1001C350.2 68.1001 351.8 72.9001 351.8 77.4001C351.8 88.4001 345.3 104 335.8 104Z"
            fill="white" />
        <path
            d="M393.7 29.8C388.3 29.8 384 34.1 384 39.6C384 44.6 387.2 48.1 392 48.1H392.2C397.5 48.1 402 44.5 402.1 38.3C402.1 33.4 398.8 29.8 393.7 29.8Z"
            fill="white" />
        <path d="M370 115.5H386.9L398.4 55.5H381.4L370 115.5Z" fill="white" />
        <path
            d="M441.5 55.4001H429.7L430.3 52.6C431.3 46.8 434.7 41.7001 440.4 41.7001C443.4 41.7001 445.8 42.6 445.8 42.6L449.1 29.3C449.1 29.3 446.2 27.8 439.9 27.8C433.9 27.8 427.9 29.5001 423.3 33.4001C417.5 38.3001 414.8 45.4 413.5 52.6L413 55.4001H405.1L402.6 68.2H410.5L401.5 115.6H418.4L427.4 68.2H439.1L441.5 55.4001Z"
            fill="white" />
        <path
            d="M482.3 55.5C482.3 55.5 471.7 82.2 467 96.8H466.8C466.5 92.1 462.6 55.5 462.6 55.5H444.8L455 110.6C455.2 111.8 455.1 112.6 454.6 113.4C452.6 117.2 449.3 120.9 445.4 123.6C442.2 125.9 438.6 127.4 435.8 128.4L440.5 142.8C443.9 142.1 451.1 139.2 457.1 133.6C464.8 126.4 472 115.2 479.3 100L500 55.5H482.3Z"
            fill="white" />
    </g>
    <defs>
        <clipPath id="clip0_13_398">
            <rect width="500" height="143" fill="white" />
        </clipPath>
    </defs>
</svg>
    