<svg width="598" height="100" viewBox="0 0 598 100" fill="none" xmlns="http://www.w3.org/2000/svg">
    <path
        d="M89.0996 0C88.9996 0 88.9996 0 88.9996 0C75.8996 0 63.4996 5.1 54.1996 14.2C49.4996 12.2 44.2996 11.1 38.9996 11.1C17.5996 11.1 0.0996094 28.5 0.0996094 50C0.0996094 71.5 17.4996 88.9 38.9996 88.9C44.1996 88.9 49.3996 87.8 54.0996 85.8C63.0996 94.6 75.3996 100 88.8996 100C116.5 100 138.9 77.6 138.9 50C139 22.5 116.6 0 89.0996 0ZM88.9996 88.9C67.5996 88.9 50.0996 71.5 50.0996 50H38.9996C38.9996 59.8 41.7996 69 46.6996 76.7C44.1996 77.4 41.5996 77.8 38.9996 77.8C23.6996 77.8 11.1996 65.3 11.1996 50C11.1996 34.7 23.6996 22.2 38.9996 22.2C45.0996 22.2 50.7996 24.1 55.6996 27.8C62.7996 33.1 66.7996 41.2 66.7996 50H77.9996C77.9996 38.4 72.9996 27.6 64.0996 20.2C71.0996 14.4 79.8996 11.1 89.0996 11.1C110.5 11.1 128 28.6 128 50C127.9 71.4 110.5 88.9 88.9996 88.9Z"
        fill="white" />
    <path
        d="M167.199 77.9V42.3H159.699V33.4H167.199V20.2H177.699V33.4H185.199V42.3H177.699V77.9H167.199Z"
        fill="white" />
    <path
        d="M196.099 26.9C192.599 26.9 189.699 24 189.699 20.5C189.699 16.9 192.599 14 196.099 14C199.799 14 202.599 17 202.599 20.5C202.599 24 199.899 26.9 196.099 26.9ZM190.999 77.9V33.4H201.499V77.9H190.999Z"
        fill="white" />
    <path
        d="M250.8 67.4C247.1 74.4 240.2 78.9 230.7 78.9C217.2 78.9 207.6 69.3 207.6 55.6C207.6 42.3 217.4 32.3 230.2 32.3C243.2 32.3 252.3 42.3 252.3 55.6C252.3 56.4 252.3 57.5 252.2 58.8H218C218.5 65.2 224.2 70.1 230.8 70.1C236.6 70.1 239.6 67.3 242.1 63.4L250.8 67.4ZM241.9 51.2C241.2 45.3 236.5 40.9 230 40.9C223.7 40.9 218.8 46.1 218.1 51.2H241.9Z"
        fill="white" />
    <path
        d="M268.499 77.9H257.999V33.4H268.499V39.3C271.299 35 275.899 32.3 282.099 32.3C292.999 32.3 299.299 39.5 299.299 51.1V77.9H288.799V53.1C288.799 46.2 285.399 42 278.899 42C272.599 42 268.499 46.8 268.499 54.4V77.9Z"
        fill="white" />
    <path
        d="M341.599 77.9V71.5C338.299 76.1 332.699 78.9 326.499 78.9C314.199 78.9 304.799 68.9 304.799 55.6C304.799 42.5 314.199 32.3 326.499 32.3C332.699 32.3 338.299 34.8 341.599 39.5V16.7H351.999V77.9H341.599ZM328.699 69.4C336.199 69.4 341.999 63.2 341.999 55.6C341.999 48 336.199 41.8 328.699 41.8C321.199 41.8 315.399 48 315.399 55.6C315.399 63.2 321.199 69.4 328.699 69.4Z"
        fill="white" />
    <path
        d="M373.999 51.6L386.099 50.1V48.2C386.099 43.8 382.999 40.9 378.199 40.9C373.699 40.9 370.799 43.2 369.399 47.6L359.799 45.1C361.999 37.1 369.099 32.2 378.199 32.2C389.799 32.2 396.299 38.3 396.299 48.8V77.7H386.499L386.399 72.3C383.399 76.6 378.299 78.8 372.499 78.8C364.099 78.8 358.199 73.4 358.199 65.9C358.199 58 363.499 53.2 373.999 51.6ZM374.999 70.5C381.499 70.5 386.199 66.3 386.199 60.4V57.9L376.099 59.3C371.099 59.9 368.699 62.2 368.699 65.4C368.699 68.6 371.299 70.5 374.999 70.5Z"
        fill="white" />
    <path
        d="M415.299 77.9H404.799V33.4H415.299V39.3C418.099 35 422.699 32.3 428.899 32.3C439.799 32.3 446.099 39.5 446.099 51.1V77.9H435.599V53.1C435.599 46.2 432.199 42 425.699 42C419.399 42 415.299 46.8 415.299 54.4V77.9Z"
        fill="white" />
    <path
        d="M453.699 58.7V33.4H464.199V58.1C464.199 65.1 467.599 69.3 473.499 69.3C479.299 69.3 482.799 65.1 482.799 58.1V33.4H493.299V58.7C493.299 71.5 485.899 78.9 473.499 78.9C461.199 79 453.699 71.5 453.699 58.7Z"
        fill="white" />
    <path
        d="M501.699 77.9V16.7H512.099V39.8C515.399 35.2 520.999 32.4 527.199 32.4C539.499 32.4 548.899 42.4 548.899 55.7C548.899 68.8 539.499 79 527.199 79C520.999 79 515.399 76.5 512.099 71.8V77.9H501.699ZM525.099 41.8C517.599 41.8 511.799 48 511.799 55.6C511.799 63.2 517.599 69.4 525.099 69.4C532.599 69.4 538.399 63.2 538.399 55.6C538.399 48 532.599 41.8 525.099 41.8Z"
        fill="white" />
    <path
        d="M595.7 67.4C592 74.4 585.1 78.9 575.6 78.9C562.1 78.9 552.5 69.3 552.5 55.6C552.5 42.3 562.3 32.3 575.1 32.3C588.1 32.3 597.2 42.3 597.2 55.6C597.2 56.4 597.2 57.5 597.1 58.8H562.9C563.4 65.2 569.1 70.1 575.7 70.1C581.5 70.1 584.5 67.3 587 63.4L595.7 67.4ZM586.8 51.2C586.1 45.3 581.4 40.9 574.9 40.9C568.6 40.9 563.7 46.1 563 51.2H586.8Z"
        fill="white" />
</svg>
    