<svg width="1178" height="429" viewBox="0 0 1178 429" fill="none" xmlns="http://www.w3.org/2000/svg">
    <g clip-path="url(#clip0_17_463)">
        <path
            d="M861.39 163.79H820.48V304C820.478 305.278 819.969 306.502 819.066 307.405C818.162 308.309 816.938 308.817 815.66 308.82H784.11C782.833 308.817 781.608 308.309 780.705 307.405C779.802 306.502 779.293 305.278 779.29 304V163.79H738.14C737.521 163.816 736.902 163.716 736.322 163.498C735.741 163.28 735.21 162.948 734.761 162.52C734.311 162.093 733.952 161.58 733.705 161.011C733.457 160.443 733.326 159.83 733.32 159.21V134.41C733.326 133.79 733.457 133.177 733.705 132.609C733.952 132.04 734.311 131.527 734.761 131.1C735.21 130.673 735.741 130.34 736.322 130.122C736.902 129.904 737.521 129.805 738.14 129.83H861.38C862.658 129.77 863.907 130.218 864.855 131.076C865.803 131.935 866.373 133.133 866.44 134.41V159.22C866.37 160.493 865.801 161.688 864.855 162.544C863.91 163.399 862.664 163.847 861.39 163.79Z"
            fill="#F71963" />
        <path
            d="M992.72 307.81C984.29 309.01 970.11 310.94 944.1 310.94C913.03 310.94 885.58 302.99 885.58 259.16V179.16C885.58 135.33 913.28 127.62 944.34 127.62C970.34 127.62 984.29 129.55 992.72 130.75C996.09 131.23 997.54 132.44 997.54 135.57V158C997.538 159.278 997.029 160.502 996.125 161.405C995.222 162.309 993.998 162.817 992.72 162.82H941.94C930.62 162.82 926.53 166.67 926.53 179.2V201.12H990.8C992.078 201.123 993.302 201.631 994.205 202.535C995.109 203.438 995.617 204.662 995.62 205.94V228.82C995.617 230.098 995.109 231.322 994.205 232.225C993.302 233.129 992.078 233.637 990.8 233.64H926.53V259.17C926.53 271.69 930.62 275.55 941.94 275.55H992.72C993.998 275.553 995.222 276.061 996.125 276.965C997.029 277.868 997.538 279.092 997.54 280.37V302.77C997.54 305.88 996.09 307.33 992.72 307.81Z"
            fill="#F71963" />
        <path
            d="M1174.43 308.77H1136.14C1133.01 308.77 1131.56 307.77 1129.88 305.16L1096.68 252.45L1066.6 304C1064.91 306.89 1063.23 308.82 1060.6 308.82H1024.96C1022.55 308.82 1021.35 307.37 1021.35 305.69C1021.4 305.1 1021.56 304.526 1021.83 304L1074 217L1021.29 134.39C1021.02 133.949 1020.86 133.453 1020.81 132.94C1020.9 132.055 1021.32 131.237 1021.99 130.655C1022.66 130.072 1023.53 129.77 1024.42 129.81H1063.19C1065.84 129.81 1067.77 132.22 1069.19 134.39L1100 183.04L1129.82 134.39C1131.02 132.22 1133.19 129.81 1135.82 129.81H1171.46C1172.35 129.77 1173.22 130.072 1173.89 130.655C1174.56 131.237 1174.98 132.055 1175.07 132.94C1175.02 133.453 1174.86 133.949 1174.59 134.39L1122.14 217.51L1176.84 304C1177.27 304.735 1177.51 305.561 1177.56 306.41C1177.57 307.81 1176.36 308.77 1174.43 308.77Z"
            fill="#F71963" />
        <path
            d="M675.6 130.31C674.74 130.312 673.908 130.612 673.244 131.159C672.58 131.706 672.127 132.466 671.96 133.31L637 262.7C636.52 265.35 635.8 266.31 633.63 266.31C631.46 266.31 630.74 265.31 630.26 262.7L595.26 133.28C595.094 132.436 594.64 131.676 593.976 131.129C593.313 130.582 592.48 130.282 591.62 130.28H557.21C556.651 130.281 556.098 130.407 555.595 130.651C555.091 130.895 554.648 131.249 554.301 131.687C553.953 132.125 553.708 132.636 553.585 133.182C553.462 133.728 553.464 134.295 553.59 134.84C553.59 134.84 596.29 283.23 596.76 284.69C602.46 302.37 616.29 310.82 633.89 310.82C650.65 310.82 665.28 301.97 671 284.74C671.68 282.74 713.43 134.83 713.43 134.83C713.555 134.286 713.555 133.72 713.431 133.175C713.308 132.631 713.063 132.121 712.715 131.684C712.367 131.247 711.926 130.894 711.423 130.651C710.92 130.408 710.369 130.281 709.81 130.28L675.6 130.31Z"
            fill="#F71963" />
        <path
            d="M463.59 0.140015H89.5904C60.5904 0.140015 42.0204 30.97 55.5904 56.6L93.0004 127.44H25.1804C20.8855 127.441 16.6636 128.552 12.9239 130.664C9.18407 132.776 6.0531 135.818 3.8342 139.495C1.61529 143.173 0.383668 147.361 0.258622 151.654C0.133575 155.947 1.11934 160.2 3.12044 164L123.45 391.75C125.572 395.756 128.745 399.107 132.628 401.445C136.511 403.783 140.958 405.018 145.49 405.018C150.023 405.018 154.47 403.783 158.353 401.445C162.236 399.107 165.409 395.756 167.53 391.75L200.21 330.23L241.21 407.85C255.64 435.15 294.73 435.2 309.21 407.93L496.67 55.17C509.92 30.22 491.84 0.140015 463.59 0.140015ZM295.59 150.86L214.76 303C213.348 305.664 211.236 307.892 208.652 309.447C206.069 311.001 203.111 311.822 200.095 311.822C197.08 311.822 194.122 311.001 191.538 309.447C188.955 307.892 186.843 305.664 185.43 303L105.38 151.5C104.042 148.974 103.379 146.145 103.456 143.288C103.532 140.431 104.344 137.641 105.815 135.19C107.285 132.739 109.364 130.709 111.849 129.297C114.334 127.885 117.142 127.138 120 127.13H281.33C284.117 127.13 286.857 127.851 289.282 129.224C291.708 130.596 293.737 132.573 295.173 134.961C296.608 137.35 297.401 140.07 297.474 142.856C297.547 145.642 296.898 148.399 295.59 150.86Z"
            fill="#F71963" />
    </g>
    <defs>
        <clipPath id="clip0_17_463">
            <rect width="1178" height="429" fill="white" />
        </clipPath>
    </defs>
</svg>
    