<svg width="2759" height="557" viewBox="0 0 2759 557" fill="none" xmlns="http://www.w3.org/2000/svg">
    <g clip-path="url(#clip0_2_27)">
        <path fill-rule="evenodd" clip-rule="evenodd"
            d="M87.269 0H847.97C895.93 0 934.99 39.061 934.99 87.022V377.261C934.99 425.222 895.93 464.283 847.97 464.283H575.039L612.369 556.003L447.472 464.283H87.022C39.061 464.283 0 425.222 0 377.261V87.022C0 39.061 39.061 0 87.269 0Z"
            fill="#7F54B3" />
        <path
            d="M47.2193 78.864C53.1533 71.695 61.8063 67.245 71.2003 66.997C90.4833 65.761 101.608 74.908 104.575 94.439C116.442 174.045 129.297 241.783 142.894 297.408L226.703 138.197C234.367 123.858 243.761 116.195 255.381 115.453C272.192 114.217 282.575 124.847 286.778 147.592C294.689 192.092 306.803 235.85 322.872 278.125C333.008 181.214 349.819 111.003 373.306 67.739C378.003 57.85 387.644 51.422 398.522 50.928C407.175 50.186 415.828 52.906 422.503 58.592C429.425 63.783 433.628 71.942 434.122 80.595C434.617 87.022 433.38 93.45 430.414 98.889C415.58 126.578 403.219 172.561 393.578 236.839C384.183 298.892 380.475 347.595 382.947 382.453C383.936 391.106 382.205 399.758 378.497 407.422C374.789 415.333 366.878 420.772 358.225 421.267C348.089 422.008 338.2 417.311 328.064 407.175C292.464 370.833 264.281 316.692 243.514 244.75C219.039 293.7 200.497 330.536 188.383 354.764C165.886 398.028 146.603 420.031 130.781 421.267C120.397 422.008 111.497 413.356 104.328 395.061C84.7973 345.122 63.7833 248.458 41.2863 105.07C39.3083 95.675 41.5333 86.281 47.2193 78.864Z"
            fill="white" />
        <path
            d="M628.936 138.939C616.08 115.947 593.83 99.63 567.872 94.686C560.949 93.203 554.027 92.461 547.105 92.461C510.516 92.461 480.602 111.497 457.363 149.569C437.585 181.955 427.202 219.286 427.697 257.111C427.697 286.53 433.877 311.747 445.991 332.761C458.847 355.753 481.097 372.069 507.055 377.014C513.977 378.497 520.899 379.239 527.822 379.239C564.658 379.239 594.572 360.203 617.563 322.13C637.341 289.497 647.724 252.167 647.23 213.847C647.23 184.428 641.049 159.458 628.936 138.939ZM580.727 244.997C575.536 269.967 565.894 288.755 551.555 301.611C540.43 311.747 530.047 315.703 520.652 313.972C511.258 312.242 503.841 303.836 498.155 289.25C493.952 278.125 491.48 266.505 491.48 254.391C491.48 244.997 492.469 235.603 494.199 226.455C497.908 210.139 504.583 194.811 514.472 180.966C527.08 162.425 540.43 154.514 554.274 157.48C563.669 159.458 571.085 167.616 576.772 182.203C580.974 193.328 583.447 204.947 583.447 216.814C583.447 226.208 582.705 235.603 580.727 244.997Z"
            fill="white" />
        <path
            d="M868.24 138.939C855.39 115.947 833.14 99.63 807.18 94.686C800.26 93.203 793.34 92.461 786.41 92.461C749.83 92.461 719.91 111.497 696.672 149.569C676.895 181.955 666.511 219.286 667.006 257.111C667.006 286.53 673.186 311.747 685.3 332.761C698.156 355.753 720.41 372.069 746.36 377.014C753.29 378.497 760.21 379.239 767.13 379.239C803.97 379.239 833.88 360.203 856.87 322.13C876.65 289.497 887.03 252.167 886.54 213.847C886.54 184.428 880.36 159.458 868.24 138.939ZM820.04 244.997C814.84 269.967 805.2 288.755 790.86 301.611C779.74 311.747 769.36 315.703 759.96 313.972C750.57 312.242 743.15 303.836 737.46 289.25C733.26 278.125 730.79 266.505 730.79 254.391C730.79 244.997 731.78 235.603 733.51 226.455C737.22 210.139 743.89 194.811 753.78 180.966C766.39 162.425 779.74 154.514 793.58 157.48C802.98 159.458 810.39 167.616 816.08 182.203C820.28 193.328 822.76 204.947 822.76 216.814C822.76 226.208 822.01 235.603 820.04 244.997Z"
            fill="white" />
        <path
            d="M1031.41 135.478C1005.95 160.694 993.34 192.833 993.34 231.647C993.34 273.428 1005.95 307.297 1031.16 333.008C1056.38 358.719 1089.26 371.575 1130.05 371.575C1143.65 371.328 1157 369.103 1169.86 365.394V303.589C1158.48 307.05 1146.86 309.028 1135 309.522C1114.72 309.522 1098.66 302.847 1086.54 289.25C1074.43 275.653 1068.25 257.111 1068.25 233.872C1068.25 212.117 1074.18 194.317 1086.29 180.225C1097.42 166.628 1114.23 158.964 1131.78 159.211C1144.64 159.211 1157.49 161.189 1169.86 164.65V102.597C1156.26 99.136 1142.17 97.405 1128.07 97.653C1089.26 97.653 1056.88 110.261 1031.41 135.478ZM1296.43 97.653C1261.08 97.653 1233.64 109.272 1213.86 132.758C1194.08 156.244 1184.19 188.878 1184.44 230.906C1184.44 276.395 1194.33 311.253 1213.86 335.233C1233.39 359.214 1262.07 371.328 1299.4 371.328C1335.49 371.328 1363.43 359.214 1382.96 335.233C1402.49 311.006 1412.38 277.383 1412.38 233.872C1412.38 190.361 1402.49 156.739 1382.47 133.253C1362.94 109.52 1334.26 97.653 1296.43 97.653ZM1326.84 296.172C1320.41 306.556 1308.79 312.736 1296.68 312.242C1285.06 312.489 1274.18 306.308 1268.74 296.172C1262.32 285.542 1259.1 264.033 1259.1 231.647C1259.1 181.461 1271.71 156.244 1297.18 156.244C1324.12 156.244 1337.72 181.708 1337.72 232.389C1337.47 264.28 1333.76 285.294 1326.84 296.172ZM1601.51 105.069L1587.91 163.414C1584.45 178.495 1580.99 193.822 1578.02 209.397L1570.36 249.942C1562.94 209.645 1553.05 161.189 1540.44 105.317H1451.69L1418.31 365.394H1484.82L1502.86 186.158L1548.35 365.394H1595.82L1639.08 186.158L1657.87 364.9H1727.34L1691.99 105.069H1601.51ZM1919.93 105.069L1906.33 163.414C1902.87 178.495 1899.41 193.822 1896.44 209.397L1888.78 249.942C1881.36 209.645 1871.47 161.189 1858.86 105.317H1770.11L1736.74 365.147H1803.24L1821.29 185.911L1866.77 365.147H1914.24L1957.75 186.158L1976.54 364.9H2046.01L2010.66 105.069H1919.93ZM2135.75 262.055H2198.3V207.914H2135.75V160.2H2207.69V105.069H2065.54V365.147H2208.19V309.522H2135.75V262.055ZM2405.97 221.017C2425.74 189.62 2417.83 148.333 2388.17 126.331C2369.13 112.239 2342.93 105.069 2309.8 105.069H2227.97V365.147H2298.18V246.48H2299.41L2356.28 364.9H2430.44L2374.32 247.716C2387.43 242.278 2398.55 232.884 2405.97 221.017ZM2298.18 216.814V155.008C2314.74 155.503 2326.86 158.222 2334.03 163.414C2341.19 168.606 2344.9 177.258 2344.9 189.125C2344.9 207.172 2329.33 216.319 2298.18 216.814ZM2458.63 135.478C2433.16 160.694 2420.31 192.833 2420.31 231.647C2420.31 273.428 2432.91 307.297 2458.13 332.761C2483.35 358.472 2516.48 371.328 2557.02 371.328C2570.62 371.08 2583.97 369.103 2597.07 365.394V303.589C2585.7 307.05 2574.08 309.028 2562.21 309.522C2541.94 309.522 2525.87 302.847 2513.51 289.25C2501.39 275.653 2495.21 257.111 2495.21 233.872C2495.21 212.117 2501.15 194.317 2513.26 180.225C2524.39 166.628 2541.2 158.964 2558.75 159.211C2571.61 159.211 2584.46 161.189 2596.82 164.65V102.597C2583.23 99.136 2569.13 97.405 2555.04 97.653C2516.23 97.653 2484.09 110.261 2458.63 135.478ZM2686.56 309.275V262.055H2749.11V207.914H2686.56V160.2H2758.51V105.069H2616.35V365.147H2759V309.522H2686.56V309.275Z"
            fill="white" />
    </g>
    <defs>
        <clipPath id="clip0_2_27">
            <rect width="2759" height="557" fill="white" />
        </clipPath>
    </defs>
</svg>
    